<svg width="295" height="339" viewBox="0 0 295 339" fill="none" xmlns="http://www.w3.org/2000/svg">
<rect width="294.613" height="338.081" rx="13.7992" fill="#FFDB71"/>
<ellipse cx="129.521" cy="134.334" rx="78.0816" ry="71.3339" fill="url(#paint0_linear_2089_698)"/>
<path d="M162.524 104.546C170.397 104.546 177.733 112.918 177.733 124.572C177.733 136.227 170.397 144.599 162.524 144.599C154.652 144.599 147.315 136.226 147.315 124.572C147.315 112.918 154.652 104.546 162.524 104.546Z" stroke="black" stroke-width="5"/>
<path d="M202.773 88.0265C210.646 88.0265 217.982 96.3988 217.982 108.053C217.982 119.707 210.646 128.079 202.773 128.079C194.9 128.079 187.564 119.707 187.564 108.053C187.564 96.3989 194.9 88.0267 202.773 88.0265Z" stroke="black" stroke-width="5"/>
<path d="M54.6597 141.386C70.759 133.127 111.812 118.71 147.231 127.12" stroke="black" stroke-width="5"/>
<path d="M106.177 174.882V259.684C106.177 264.5 102.745 268.631 98.0114 269.515L65.9292 275.5M147.231 204.166V257.991C147.231 263.514 151.708 267.991 157.231 267.991H168.16" stroke="black" stroke-width="5"/>
<path d="M197.943 174.131C210.286 178.386 239.48 183.141 257.511 168.124" stroke="black" stroke-width="5"/>
<path d="M60.2943 157.611L51.174 168.358C47.7183 172.43 48.2921 178.373 53.307 180.209C58.2832 182.031 65.217 183.468 73.9787 183.141" stroke="black" stroke-width="5"/>
<path d="M259.121 138.088V171.127" stroke="black" stroke-width="5"/>
<path d="M258.316 122.567C264.808 122.567 269.5 127.122 269.5 132.081C269.5 137.039 264.808 141.595 258.316 141.595C251.823 141.595 247.131 137.04 247.131 132.081C247.132 127.122 251.823 122.567 258.316 122.567Z" stroke="black" stroke-width="5"/>
<path d="M186.674 127.576C193.382 133.833 202.774 147.399 186.674 151.604" stroke="black" stroke-width="5"/>
<defs>
<linearGradient id="paint0_linear_2089_698" x1="130.326" y1="120.067" x2="128.22" y2="135.877" gradientUnits="userSpaceOnUse">
<stop offset="0.413462" stop-color="#2F60A5"/>
<stop offset="0.413562" stop-color="white"/>
</linearGradient>
</defs>
</svg>
