<svg width="295" height="339" viewBox="0 0 295 339" fill="none" xmlns="http://www.w3.org/2000/svg">
<rect width="294.613" height="338.081" rx="13.7992" fill="#FFDB71"/>
<rect x="135.176" y="38" width="97.5544" height="238.48" rx="24.8511" fill="url(#paint0_linear_2098_712)"/>
<path d="M145.846 100.815C154.247 100.815 160.837 107.128 160.837 114.655C160.837 122.181 154.247 128.493 145.846 128.494C137.445 128.494 130.854 122.181 130.854 114.655C130.854 107.128 137.445 100.815 145.846 100.815Z" stroke="black" stroke-width="3.55016"/>
<path d="M179.38 100.815C187.781 100.815 194.372 107.128 194.372 114.655C194.371 122.181 187.781 128.493 179.38 128.494C170.979 128.494 164.388 122.181 164.388 114.655C164.388 107.128 170.979 100.815 179.38 100.815Z" stroke="black" stroke-width="3.55016"/>
<path d="M193.098 113.679C198.179 110.13 212.152 105.162 227.395 113.679" stroke="black" stroke-width="3.55016"/>
<path d="M171.758 274.351V299.899C171.758 303.821 168.579 307 164.658 307H159.564" stroke="black" stroke-width="3.55016"/>
<path d="M193.862 275.77V298.837C193.862 299.543 193.767 300.249 193.511 300.907C192.185 304.313 188.924 309.252 183.954 307.709" stroke="black" stroke-width="3.55016"/>
<path d="M136.701 170.725L89.4482 155.82" stroke="black" stroke-width="3.55016"/>
<path d="M233.492 154.401C259.151 155.82 292.482 165.331 220.536 192.018" stroke="black" stroke-width="3.55016"/>
<path d="M94.7822 150.852L55.8674 135.52C55.391 135.332 54.8864 135.191 54.3787 135.125C37.2806 132.89 31.0013 149.325 30 157.95L78.7772 177.113C75.7286 166.325 88.177 155.111 94.7822 150.852Z" stroke="black" stroke-width="3.55016"/>
<path d="M96.8002 144.832L57.8254 129.801C57.3048 129.6 56.7994 129.343 56.353 129.022C42.7291 119.245 50.8778 103.582 56.764 96.8742L105.655 115.783C95.2636 121.332 95.422 137.461 96.8002 144.832Z" stroke="black" stroke-width="3.55016"/>
<defs>
<linearGradient id="paint0_linear_2098_712" x1="183.953" y1="38" x2="183.953" y2="276.48" gradientUnits="userSpaceOnUse">
<stop offset="0.360577" stop-color="#BF2F64"/>
<stop offset="0.360677" stop-color="white"/>
</linearGradient>
</defs>
</svg>
