<svg width="125" height="113" viewBox="0 0 125 113" fill="none" xmlns="http://www.w3.org/2000/svg">
<path d="M62.5029 1.10449C63.8099 1.10456 65.0781 1.49325 66.1279 2.20801C67.1115 2.8778 67.8538 3.7991 68.2734 4.84863L68.3525 5.06055L79.8398 38.2275L80.0967 38.9697L80.8818 38.9707L117.774 39.0225V39.0234C119.083 39.0305 120.35 39.4265 121.396 40.1484C122.441 40.8701 123.208 41.8775 123.601 43.0186C123.993 44.1585 123.994 45.3844 123.605 46.5254C123.219 47.6607 122.462 48.6641 121.429 49.3877L91.7891 69.124L91.0908 69.5898L91.3525 70.3877L102.507 104.405L102.51 104.415C102.895 105.555 102.89 106.778 102.495 107.915C102.1 109.053 101.33 110.056 100.284 110.772L100.279 110.775C99.2316 111.502 97.9585 111.897 96.6455 111.896H96.6436C95.3725 111.895 94.1119 111.527 93.0283 110.797L63.1201 90.5293L62.501 90.1094L61.8809 90.5293L31.9736 110.797L31.9717 110.798C30.9204 111.512 29.65 111.9 28.3418 111.896C27.0335 111.891 25.7656 111.496 24.7197 110.774L24.7168 110.772L24.5244 110.635C23.5762 109.93 22.876 108.982 22.5049 107.915C22.1095 106.778 22.1039 105.554 22.4883 104.414L22.4912 104.405L33.6455 70.3877L33.9072 69.5898L33.208 69.124L3.57715 49.3926C2.54116 48.6665 1.78182 47.6602 1.39453 46.5215C1.0065 45.3804 1.00743 44.1551 1.39746 43.0146C1.7919 41.8755 2.55946 40.8711 3.60352 40.1504C4.64673 39.4303 5.90982 39.0325 7.21484 39.0225L7.21582 39.0234L43.9248 38.9707L44.7061 38.9697L44.9648 38.2334L56.6523 5.06055C57.0537 3.92335 57.8278 2.92248 58.877 2.20801C59.9269 1.49309 61.1957 1.10449 62.5029 1.10449Z" fill="#FDCC38" stroke="#FDCC38" stroke-width="2.20845"/>
</svg>
