<svg width="32" height="32" viewBox="0 0 32 32" fill="none" xmlns="http://www.w3.org/2000/svg">
<circle cx="16" cy="16" r="16" fill="#FFDB6F"/>
<g clip-path="url(#clip0_2012_684)">
<path d="M12.0855 11H13.65V14H10.3042L11.2067 11.6281C11.3492 11.25 11.6966 11 12.0855 11ZM15.075 14V11H17.4856C17.7736 11 18.0467 11.1375 18.2278 11.375L20.2228 14H15.075ZM22.6809 14.0312L19.7122 10.125C19.1719 9.4125 18.3525 9 17.4856 9H12.0855C10.9188 9 9.87078 9.74688 9.44031 10.8844L8.20531 14.1375C7.49875 14.4312 7 15.1531 7 16V19.5C7 20.0531 7.42453 20.5 7.95 20.5H8.93859C9.16422 21.9187 10.3369 23 11.75 23C13.1631 23 14.3358 21.9187 14.5614 20.5H18.4416C18.6672 21.9187 19.8398 23 21.253 23C22.6661 23 23.8388 21.9187 24.0644 20.5H25.053C25.5784 20.5 26.003 20.0531 26.003 19.5V18C26.003 15.9625 24.5542 14.2812 22.6839 14.0312H22.6809ZM19.9052 19.5C19.9656 19.3118 20.061 19.138 20.1858 18.9889C20.3106 18.8398 20.4623 18.7183 20.6321 18.6314C20.8019 18.5446 20.9864 18.4941 21.1749 18.4829C21.3634 18.4717 21.5521 18.5001 21.7301 18.5663C21.9081 18.6326 22.0718 18.7354 22.2117 18.8688C22.3516 19.0022 22.465 19.1635 22.5452 19.3435C22.6253 19.5234 22.6708 19.7182 22.6788 19.9168C22.6868 20.1153 22.6573 20.3136 22.5919 20.5C22.5314 20.6882 22.436 20.862 22.3112 21.0111C22.1864 21.1602 22.0347 21.2817 21.8649 21.3686C21.6951 21.4554 21.5106 21.5059 21.3221 21.5171C21.1336 21.5283 20.9449 21.4999 20.7669 21.4337C20.5889 21.3674 20.4252 21.2646 20.2853 21.1312C20.1454 20.9978 20.0321 20.8365 19.9519 20.6565C19.8717 20.4766 19.8263 20.2818 19.8183 20.0832C19.8102 19.8847 19.8398 19.6864 19.9052 19.5ZM11.75 18.5C12.1279 18.5 12.4904 18.658 12.7576 18.9393C13.0249 19.2206 13.175 19.6022 13.175 20C13.175 20.3978 13.0249 20.7794 12.7576 21.0607C12.4904 21.342 12.1279 21.5 11.75 21.5C11.3721 21.5 11.0096 21.342 10.7424 21.0607C10.4751 20.7794 10.325 20.3978 10.325 20C10.325 19.6022 10.4751 19.2206 10.7424 18.9393C11.0096 18.658 11.3721 18.5 11.75 18.5Z" fill="#2F60A5"/>
</g>
<defs>
<clipPath id="clip0_2012_684">
<rect width="19" height="16" fill="white" transform="translate(7 8)"/>
</clipPath>
</defs>
</svg>
