<svg width="32" height="32" viewBox="0 0 32 32" fill="none" xmlns="http://www.w3.org/2000/svg">
<circle cx="16" cy="16" r="16" fill="#FFDB6F"/>
<g clip-path="url(#clip0_2012_686)">
<path d="M16 13.625L14.7656 12.4678C14.9187 12.0986 15 11.7002 15 11.2812C15 9.46777 13.4344 8 11.5 8C9.56562 8 8 9.46777 8 11.2812C8 13.0947 9.56562 14.5625 11.5 14.5625C11.9469 14.5625 12.3719 14.4834 12.7656 14.3428L14 15.5L12.7656 16.6572C12.3719 16.5137 11.9469 16.4375 11.5 16.4375C9.56562 16.4375 8 17.9053 8 19.7188C8 21.5322 9.56562 23 11.5 23C13.4344 23 15 21.5322 15 19.7188C15 19.2998 14.9156 18.9014 14.7656 18.5322L23.6 10.25C23.8219 10.042 23.8219 9.70801 23.6 9.5C22.7156 8.6709 21.2844 8.6709 20.4 9.5L16 13.625ZM16.7063 18.0371L20.4 21.5C21.2844 22.3291 22.7156 22.3291 23.6 21.5C23.8219 21.292 23.8219 20.958 23.6 20.75L18.7063 16.1621L16.7063 18.0371ZM10 11.2812C10 11.0966 10.0388 10.9137 10.1142 10.7431C10.1896 10.5725 10.3001 10.4175 10.4393 10.2869C10.5786 10.1563 10.744 10.0527 10.926 9.98204C11.108 9.91137 11.303 9.875 11.5 9.875C11.697 9.875 11.892 9.91137 12.074 9.98204C12.256 10.0527 12.4214 10.1563 12.5607 10.2869C12.6999 10.4175 12.8104 10.5725 12.8858 10.7431C12.9612 10.9137 13 11.0966 13 11.2812C13 11.4659 12.9612 11.6488 12.8858 11.8194C12.8104 11.99 12.6999 12.145 12.5607 12.2756C12.4214 12.4062 12.256 12.5098 12.074 12.5805C11.892 12.6511 11.697 12.6875 11.5 12.6875C11.303 12.6875 11.108 12.6511 10.926 12.5805C10.744 12.5098 10.5786 12.4062 10.4393 12.2756C10.3001 12.145 10.1896 11.99 10.1142 11.8194C10.0388 11.6488 10 11.4659 10 11.2812ZM11.5 18.3125C11.697 18.3125 11.892 18.3489 12.074 18.4195C12.256 18.4902 12.4214 18.5938 12.5607 18.7244C12.6999 18.855 12.8104 19.01 12.8858 19.1806C12.9612 19.3512 13 19.5341 13 19.7188C13 19.9034 12.9612 20.0863 12.8858 20.2569C12.8104 20.4275 12.6999 20.5825 12.5607 20.7131C12.4214 20.8437 12.256 20.9473 12.074 21.018C11.892 21.0886 11.697 21.125 11.5 21.125C11.303 21.125 11.108 21.0886 10.926 21.018C10.744 20.9473 10.5786 20.8437 10.4393 20.7131C10.3001 20.5825 10.1896 20.4275 10.1142 20.2569C10.0388 20.0863 10 19.9034 10 19.7188C10 19.5341 10.0388 19.3512 10.1142 19.1806C10.1896 19.01 10.3001 18.855 10.4393 18.7244C10.5786 18.5938 10.744 18.4902 10.926 18.4195C11.108 18.3489 11.303 18.3125 11.5 18.3125Z" fill="#2F60A5"/>
</g>
<defs>
<clipPath id="clip0_2012_686">
<rect width="16" height="15" fill="white" transform="translate(8 8)"/>
</clipPath>
</defs>
</svg>
