<svg width="32" height="32" viewBox="0 0 32 32" fill="none" xmlns="http://www.w3.org/2000/svg">
<circle cx="16" cy="16" r="16" fill="#FFDB6F"/>
<g clip-path="url(#clip0_114_1791)">
<path d="M25.6899 8.81294C26.1023 8.3979 26.1023 7.72388 25.6899 7.30884C25.2776 6.8938 24.608 6.8938 24.1957 7.30884L17.8623 13.6838L16.7177 12.5317C16.5792 12.3922 16.3878 12.3125 16.1899 12.3125C15.7776 12.3125 15.4444 12.6479 15.4444 13.0629V14.0291L19.0168 17.625H19.9767C20.3891 17.625 20.7222 17.2897 20.7222 16.8747C20.7222 16.6754 20.6431 16.4829 20.5045 16.3434L19.3599 15.1913L25.6932 8.81626L25.6899 8.81294ZM18.2516 18.734L14.3427 14.7995C12.9342 14.6766 11.5323 15.1879 10.5229 16.204L10.259 16.4696C9.52344 17.21 9.11111 18.2127 9.11111 19.2586C9.11111 19.4844 9.34531 19.6305 9.54653 19.5309L11.2321 18.6842C11.397 18.6012 11.5455 18.8204 11.4102 18.9465L7.2408 22.7184C7.08906 22.8579 7 23.0571 7 23.2663C7 23.6713 7.32656 24 7.72899 24H13.4455C14.7253 24 15.9491 23.4887 16.8562 22.579C17.8656 21.5629 18.3703 20.1518 18.2516 18.734Z" fill="#2F60A5"/>
</g>
<defs>
<clipPath id="clip0_114_1791">
<rect width="19" height="17" fill="white" transform="translate(7 7)"/>
</clipPath>
</defs>
</svg>
