<svg width="32" height="32" viewBox="0 0 32 32" fill="none" xmlns="http://www.w3.org/2000/svg">
<circle cx="16" cy="16" r="16" fill="#FFDB6F"/>
<path d="M9.275 9C8.57109 9 8 9.58789 8 10.3125V19.0625C8 19.7871 8.57109 20.375 9.275 20.375H9.7C9.7 21.8242 10.8422 23 12.25 23C13.6578 23 14.8 21.8242 14.8 20.375H18.2C18.2 21.8242 19.3422 23 20.75 23C22.1578 23 23.3 21.8242 23.3 20.375H24.15C24.6202 20.375 25 19.984 25 19.5C25 19.016 24.6202 18.625 24.15 18.625V16.875V16V15.4887C24.15 15.0238 23.972 14.5781 23.6533 14.25L21.6 12.1363C21.2812 11.8082 20.8483 11.625 20.3967 11.625H19.05V10.3125C19.05 9.58789 18.4789 9 17.775 9H9.275ZM19.05 13.375H20.3967L22.45 15.4887V16H19.05V13.375ZM10.975 20.375C10.975 20.0269 11.1093 19.6931 11.3484 19.4469C11.5875 19.2008 11.9118 19.0625 12.25 19.0625C12.5882 19.0625 12.9125 19.2008 13.1516 19.4469C13.3907 19.6931 13.525 20.0269 13.525 20.375C13.525 20.7231 13.3907 21.0569 13.1516 21.3031C12.9125 21.5492 12.5882 21.6875 12.25 21.6875C11.9118 21.6875 11.5875 21.5492 11.3484 21.3031C11.1093 21.0569 10.975 20.7231 10.975 20.375ZM20.75 19.0625C21.0882 19.0625 21.4125 19.2008 21.6516 19.4469C21.8907 19.6931 22.025 20.0269 22.025 20.375C22.025 20.7231 21.8907 21.0569 21.6516 21.3031C21.4125 21.5492 21.0882 21.6875 20.75 21.6875C20.4118 21.6875 20.0875 21.5492 19.8484 21.3031C19.6093 21.0569 19.475 20.7231 19.475 20.375C19.475 20.0269 19.6093 19.6931 19.8484 19.4469C20.0875 19.2008 20.4118 19.0625 20.75 19.0625Z" fill="#2F60A5"/>
</svg>
