<svg width="32" height="32" viewBox="0 0 32 32" fill="none" xmlns="http://www.w3.org/2000/svg">
<circle cx="16" cy="16" r="16" fill="#FFDB6F"/>
<path d="M24.9938 15.4834C24.9938 16.0811 24.5251 16.5492 23.9938 16.5492H22.9938L23.0157 21.8684C23.0157 21.958 23.0095 22.0477 23.0001 22.1373V22.6752C23.0001 23.409 22.4407 24.0033 21.7501 24.0033H21.2501C21.2157 24.0033 21.1813 24.0033 21.147 24C21.1032 24.0033 21.0595 24.0033 21.0157 24.0033L20.0001 24H19.2501C18.5595 24 18.0001 23.4057 18.0001 22.6719V21.875V19.75C18.0001 19.1623 17.5532 18.6875 17.0001 18.6875H15.0001C14.447 18.6875 14.0001 19.1623 14.0001 19.75V21.875V22.6719C14.0001 23.4057 13.4407 24 12.7501 24H12.0001H11.0032C10.9563 24 10.9095 23.9967 10.8626 23.9934C10.8251 23.9967 10.7876 24 10.7501 24H10.2501C9.55947 24 9.00009 23.4057 9.00009 22.6719V18.9531C9.00009 18.9232 9.00009 18.89 9.00322 18.8602V16.5459H8.00322C7.44072 16.5459 7.00322 16.0811 7.00322 15.4801C7.00322 15.1813 7.09697 14.9156 7.31572 14.6832L15.3251 7.26563C15.5438 7.0332 15.7938 7 16.0126 7C16.2313 7 16.4813 7.06641 16.6688 7.23242L24.6501 14.6865C24.9001 14.9189 25.0251 15.1846 24.9938 15.4834Z" fill="#2F60A5"/>
</svg>
