<svg xmlns="http://www.w3.org/2000/svg" xmlns:xlink="http://www.w3.org/1999/xlink" width="1080" zoomAndPan="magnify" viewBox="0 0 810 809.999993" height="1080" preserveAspectRatio="xMidYMid meet" version="1.2"><defs><clipPath id="d7b7787fad"><path d="M 405 0 C 181.324219 0 0 181.324219 0 405 C 0 628.675781 181.324219 810 405 810 C 628.675781 810 810 628.675781 810 405 C 810 181.324219 628.675781 0 405 0 Z M 405 0 "/></clipPath><clipPath id="3f6e4edad8"><path d="M 110 320.898438 L 700 320.898438 L 700 488.898438 L 110 488.898438 Z M 110 320.898438 "/></clipPath></defs><g id="491adf2908"><g clip-rule="nonzero" clip-path="url(#d7b7787fad)"><rect x="0" width="810" y="0" height="809.999993" style="fill:#ffdb6f;fill-opacity:1;stroke:none;"/></g><g clip-rule="nonzero" clip-path="url(#3f6e4edad8)"><path style=" stroke:none;fill-rule:nonzero;fill:#3060a5;fill-opacity:1;" d="M 278.863281 404.898438 C 278.863281 406.269531 278.828125 407.644531 278.761719 409.019531 C 278.695312 410.390625 278.59375 411.761719 278.457031 413.128906 C 278.324219 414.5 278.15625 415.863281 277.953125 417.222656 C 277.75 418.582031 277.515625 419.9375 277.246094 421.285156 C 276.980469 422.632812 276.675781 423.972656 276.34375 425.308594 C 276.007812 426.640625 275.640625 427.964844 275.242188 429.28125 C 274.84375 430.597656 274.410156 431.902344 273.945312 433.195312 C 273.484375 434.488281 272.988281 435.773438 272.460938 437.042969 C 271.933594 438.3125 271.375 439.570312 270.789062 440.8125 C 270.199219 442.054688 269.582031 443.28125 268.933594 444.492188 C 268.285156 445.707031 267.605469 446.902344 266.898438 448.082031 C 266.191406 449.261719 265.453125 450.421875 264.6875 451.566406 C 263.925781 452.707031 263.132812 453.832031 262.3125 454.933594 C 261.492188 456.039062 260.644531 457.121094 259.773438 458.1875 C 258.898438 459.25 258 460.289062 257.074219 461.308594 C 256.152344 462.324219 255.203125 463.320312 254.230469 464.292969 C 253.253906 465.265625 252.257812 466.214844 251.238281 467.136719 C 250.21875 468.058594 249.175781 468.957031 248.113281 469.828125 C 247.050781 470.703125 245.964844 471.546875 244.859375 472.367188 C 243.753906 473.183594 242.628906 473.976562 241.484375 474.738281 C 240.339844 475.503906 239.175781 476.238281 237.996094 476.945312 C 236.816406 477.652344 235.617188 478.328125 234.402344 478.976562 C 233.191406 479.625 231.960938 480.242188 230.714844 480.832031 C 229.472656 481.417969 228.214844 481.976562 226.941406 482.503906 C 225.671875 483.027344 224.386719 483.523438 223.089844 483.984375 C 221.792969 484.449219 220.488281 484.878906 219.171875 485.28125 C 217.855469 485.679688 216.527344 486.046875 215.191406 486.378906 C 213.855469 486.714844 212.515625 487.015625 211.164062 487.28125 C 209.8125 487.550781 208.457031 487.785156 207.097656 487.988281 C 205.734375 488.1875 204.371094 488.355469 203 488.492188 C 201.628906 488.625 200.257812 488.726562 198.882812 488.796875 C 197.507812 488.863281 196.132812 488.898438 194.753906 488.898438 C 193.378906 488.898438 192.003906 488.863281 190.628906 488.796875 C 189.253906 488.726562 187.882812 488.625 186.511719 488.492188 C 185.140625 488.355469 183.777344 488.1875 182.414062 487.988281 C 181.054688 487.785156 179.695312 487.550781 178.347656 487.28125 C 176.996094 487.015625 175.652344 486.714844 174.320312 486.378906 C 172.984375 486.046875 171.65625 485.679688 170.339844 485.28125 C 169.023438 484.878906 167.714844 484.449219 166.421875 483.984375 C 165.125 483.523438 163.839844 483.027344 162.570312 482.503906 C 161.296875 481.976562 160.039062 481.417969 158.792969 480.832031 C 157.550781 480.242188 156.320312 479.625 155.105469 478.976562 C 153.894531 478.328125 152.695312 477.652344 151.515625 476.945312 C 150.335938 476.238281 149.171875 475.503906 148.027344 474.738281 C 146.882812 473.976562 145.757812 473.183594 144.652344 472.367188 C 143.546875 471.546875 142.460938 470.703125 141.398438 469.828125 C 140.335938 468.957031 139.292969 468.058594 138.273438 467.136719 C 137.253906 466.214844 136.253906 465.265625 135.28125 464.292969 C 134.308594 463.320312 133.359375 462.328125 132.4375 461.308594 C 131.511719 460.289062 130.613281 459.25 129.738281 458.1875 C 128.867188 457.121094 128.019531 456.039062 127.199219 454.933594 C 126.378906 453.832031 125.585938 452.707031 124.824219 451.566406 C 124.058594 450.421875 123.320312 449.261719 122.613281 448.082031 C 121.90625 446.902344 121.226562 445.707031 120.578125 444.492188 C 119.929688 443.28125 119.3125 442.054688 118.722656 440.8125 C 118.132812 439.570312 117.578125 438.3125 117.050781 437.042969 C 116.523438 435.773438 116.027344 434.488281 115.5625 433.195312 C 115.101562 431.902344 114.667969 430.597656 114.269531 429.28125 C 113.871094 427.964844 113.503906 426.640625 113.167969 425.308594 C 112.832031 423.972656 112.53125 422.632812 112.265625 421.285156 C 111.996094 419.9375 111.761719 418.582031 111.558594 417.222656 C 111.355469 415.863281 111.1875 414.5 111.050781 413.128906 C 110.917969 411.761719 110.816406 410.390625 110.75 409.019531 C 110.679688 407.644531 110.648438 406.269531 110.648438 404.898438 C 110.648438 403.523438 110.679688 402.148438 110.75 400.773438 C 110.816406 399.402344 110.917969 398.03125 111.050781 396.664062 C 111.1875 395.296875 111.355469 393.929688 111.558594 392.570312 C 111.761719 391.210938 111.996094 389.855469 112.265625 388.507812 C 112.53125 387.160156 112.832031 385.820312 113.167969 384.484375 C 113.503906 383.152344 113.871094 381.828125 114.269531 380.511719 C 114.667969 379.195312 115.101562 377.890625 115.5625 376.597656 C 116.027344 375.304688 116.523438 374.019531 117.050781 372.75 C 117.578125 371.480469 118.132812 370.226562 118.722656 368.980469 C 119.3125 367.738281 119.929688 366.511719 120.578125 365.300781 C 121.226562 364.085938 121.90625 362.890625 122.613281 361.710938 C 123.320312 360.53125 124.058594 359.371094 124.824219 358.230469 C 125.585938 357.085938 126.378906 355.960938 127.199219 354.859375 C 128.019531 353.753906 128.867188 352.671875 129.738281 351.609375 C 130.613281 350.542969 131.511719 349.503906 132.4375 348.484375 C 133.359375 347.46875 134.308594 346.472656 135.28125 345.5 C 136.253906 344.527344 137.253906 343.578125 138.273438 342.65625 C 139.292969 341.734375 140.335938 340.835938 141.398438 339.964844 C 142.460938 339.089844 143.546875 338.246094 144.652344 337.425781 C 145.757812 336.609375 146.882812 335.816406 148.027344 335.054688 C 149.171875 334.289062 150.335938 333.554688 151.515625 332.847656 C 152.695312 332.140625 153.894531 331.464844 155.105469 330.816406 C 156.320312 330.167969 157.550781 329.550781 158.792969 328.960938 C 160.039062 328.375 161.296875 327.816406 162.570312 327.289062 C 163.839844 326.765625 165.125 326.269531 166.421875 325.808594 C 167.714844 325.34375 169.023438 324.914062 170.339844 324.511719 C 171.65625 324.113281 172.984375 323.75 174.320312 323.414062 C 175.652344 323.078125 176.996094 322.777344 178.347656 322.511719 C 179.695312 322.242188 181.054688 322.007812 182.414062 321.804688 C 183.777344 321.605469 185.140625 321.4375 186.511719 321.300781 C 187.882812 321.167969 189.253906 321.066406 190.628906 320.996094 C 192.003906 320.929688 193.378906 320.898438 194.753906 320.898438 C 196.132812 320.898438 197.507812 320.929688 198.882812 320.996094 C 200.257812 321.066406 201.628906 321.167969 203 321.300781 C 204.371094 321.4375 205.734375 321.605469 207.097656 321.804688 C 208.457031 322.007812 209.8125 322.242188 211.164062 322.511719 C 212.515625 322.777344 213.855469 323.078125 215.191406 323.414062 C 216.527344 323.75 217.855469 324.113281 219.171875 324.511719 C 220.488281 324.914062 221.792969 325.34375 223.089844 325.808594 C 224.386719 326.269531 225.671875 326.765625 226.941406 327.289062 C 228.214844 327.816406 229.472656 328.375 230.714844 328.960938 C 231.960938 329.550781 233.191406 330.167969 234.402344 330.816406 C 235.617188 331.464844 236.816406 332.140625 237.996094 332.847656 C 239.175781 333.554688 240.339844 334.289062 241.484375 335.054688 C 242.628906 335.816406 243.753906 336.609375 244.859375 337.425781 C 245.964844 338.246094 247.050781 339.089844 248.113281 339.964844 C 249.175781 340.835938 250.21875 341.734375 251.238281 342.65625 C 252.257812 343.578125 253.253906 344.527344 254.230469 345.5 C 255.203125 346.472656 256.152344 347.46875 257.074219 348.484375 C 258 349.503906 258.898438 350.546875 259.773438 351.609375 C 260.644531 352.671875 261.492188 353.753906 262.3125 354.859375 C 263.132812 355.960938 263.925781 357.085938 264.6875 358.230469 C 265.453125 359.371094 266.191406 360.53125 266.898438 361.710938 C 267.605469 362.890625 268.285156 364.085938 268.933594 365.300781 C 269.582031 366.511719 270.199219 367.738281 270.789062 368.980469 C 271.375 370.226562 271.933594 371.480469 272.460938 372.75 C 272.988281 374.019531 273.484375 375.304688 273.945312 376.597656 C 274.410156 377.890625 274.84375 379.195312 275.242188 380.511719 C 275.640625 381.828125 276.007812 383.152344 276.34375 384.484375 C 276.675781 385.820312 276.980469 387.160156 277.246094 388.507812 C 277.515625 389.855469 277.75 391.210938 277.953125 392.570312 C 278.15625 393.929688 278.324219 395.296875 278.457031 396.664062 C 278.59375 398.03125 278.695312 399.402344 278.761719 400.773438 C 278.828125 402.148438 278.863281 403.523438 278.863281 404.898438 Z M 405.027344 320.898438 C 403.648438 320.898438 402.273438 320.929688 400.898438 320.996094 C 399.523438 321.066406 398.152344 321.167969 396.78125 321.300781 C 395.410156 321.4375 394.046875 321.605469 392.683594 321.804688 C 391.324219 322.007812 389.96875 322.242188 388.617188 322.511719 C 387.265625 322.777344 385.925781 323.078125 384.589844 323.414062 C 383.253906 323.75 381.925781 324.113281 380.609375 324.511719 C 379.292969 324.914062 377.988281 325.34375 376.691406 325.808594 C 375.394531 326.269531 374.109375 326.765625 372.839844 327.289062 C 371.566406 327.816406 370.308594 328.375 369.066406 328.960938 C 367.820312 329.550781 366.589844 330.167969 365.378906 330.816406 C 364.164062 331.464844 362.964844 332.140625 361.785156 332.847656 C 360.605469 333.554688 359.441406 334.289062 358.296875 335.054688 C 357.152344 335.816406 356.027344 336.609375 354.921875 337.425781 C 353.816406 338.246094 352.730469 339.089844 351.667969 339.964844 C 350.605469 340.835938 349.5625 341.734375 348.542969 342.65625 C 347.523438 343.578125 346.527344 344.527344 345.550781 345.5 C 344.578125 346.472656 343.628906 347.46875 342.707031 348.484375 C 341.78125 349.503906 340.882812 350.546875 340.007812 351.609375 C 339.136719 352.671875 338.289062 353.753906 337.46875 354.859375 C 336.648438 355.960938 335.855469 357.085938 335.09375 358.230469 C 334.328125 359.371094 333.589844 360.53125 332.882812 361.710938 C 332.175781 362.890625 331.496094 364.085938 330.847656 365.300781 C 330.199219 366.511719 329.582031 367.738281 328.992188 368.980469 C 328.402344 370.226562 327.847656 371.480469 327.320312 372.75 C 326.792969 374.019531 326.296875 375.304688 325.835938 376.597656 C 325.371094 377.890625 324.9375 379.195312 324.539062 380.511719 C 324.140625 381.828125 323.773438 383.152344 323.4375 384.484375 C 323.105469 385.820312 322.800781 387.160156 322.535156 388.507812 C 322.265625 389.855469 322.03125 391.210938 321.828125 392.570312 C 321.625 393.929688 321.457031 395.296875 321.324219 396.664062 C 321.1875 398.03125 321.085938 399.402344 321.019531 400.773438 C 320.953125 402.148438 320.917969 403.523438 320.917969 404.898438 C 320.917969 406.269531 320.953125 407.644531 321.019531 409.019531 C 321.085938 410.390625 321.1875 411.761719 321.324219 413.128906 C 321.457031 414.5 321.625 415.863281 321.828125 417.222656 C 322.03125 418.582031 322.265625 419.9375 322.535156 421.285156 C 322.800781 422.632812 323.105469 423.972656 323.4375 425.308594 C 323.773438 426.640625 324.140625 427.964844 324.539062 429.28125 C 324.9375 430.597656 325.371094 431.902344 325.835938 433.195312 C 326.296875 434.488281 326.792969 435.773438 327.320312 437.042969 C 327.847656 438.3125 328.402344 439.570312 328.992188 440.8125 C 329.582031 442.054688 330.199219 443.28125 330.847656 444.492188 C 331.496094 445.707031 332.175781 446.902344 332.882812 448.082031 C 333.589844 449.261719 334.328125 450.421875 335.09375 451.566406 C 335.855469 452.707031 336.648438 453.832031 337.46875 454.933594 C 338.289062 456.039062 339.136719 457.121094 340.007812 458.1875 C 340.882812 459.25 341.78125 460.289062 342.707031 461.308594 C 343.628906 462.324219 344.578125 463.320312 345.550781 464.292969 C 346.527344 465.265625 347.523438 466.214844 348.542969 467.136719 C 349.5625 468.058594 350.605469 468.957031 351.667969 469.828125 C 352.730469 470.703125 353.816406 471.546875 354.921875 472.367188 C 356.027344 473.183594 357.152344 473.976562 358.296875 474.738281 C 359.441406 475.503906 360.605469 476.238281 361.785156 476.945312 C 362.964844 477.652344 364.164062 478.328125 365.378906 478.976562 C 366.589844 479.625 367.820312 480.242188 369.066406 480.832031 C 370.308594 481.417969 371.566406 481.976562 372.839844 482.503906 C 374.109375 483.027344 375.394531 483.523438 376.691406 483.984375 C 377.988281 484.449219 379.292969 484.878906 380.609375 485.28125 C 381.925781 485.679688 383.253906 486.046875 384.589844 486.378906 C 385.925781 486.714844 387.265625 487.015625 388.617188 487.28125 C 389.96875 487.550781 391.324219 487.785156 392.683594 487.988281 C 394.046875 488.1875 395.410156 488.355469 396.78125 488.492188 C 398.152344 488.625 399.523438 488.726562 400.898438 488.796875 C 402.273438 488.863281 403.648438 488.898438 405.027344 488.898438 C 406.402344 488.898438 407.777344 488.863281 409.152344 488.796875 C 410.527344 488.726562 411.898438 488.625 413.269531 488.492188 C 414.640625 488.355469 416.003906 488.1875 417.367188 487.988281 C 418.726562 487.785156 420.085938 487.550781 421.433594 487.28125 C 422.785156 487.015625 424.125 486.714844 425.460938 486.378906 C 426.796875 486.046875 428.125 485.679688 429.441406 485.28125 C 430.757812 484.878906 432.066406 484.449219 433.359375 483.984375 C 434.65625 483.523438 435.941406 483.027344 437.210938 482.503906 C 438.484375 481.976562 439.742188 481.417969 440.984375 480.832031 C 442.230469 480.242188 443.460938 479.625 444.671875 478.976562 C 445.886719 478.328125 447.085938 477.652344 448.265625 476.945312 C 449.445312 476.238281 450.609375 475.503906 451.753906 474.738281 C 452.898438 473.976562 454.023438 473.183594 455.128906 472.367188 C 456.234375 471.546875 457.320312 470.703125 458.382812 469.828125 C 459.445312 468.957031 460.488281 468.058594 461.507812 467.136719 C 462.527344 466.214844 463.527344 465.265625 464.5 464.292969 C 465.472656 463.320312 466.421875 462.328125 467.34375 461.308594 C 468.269531 460.289062 469.167969 459.25 470.042969 458.1875 C 470.914062 457.121094 471.761719 456.039062 472.582031 454.933594 C 473.402344 453.832031 474.195312 452.707031 474.957031 451.566406 C 475.722656 450.421875 476.460938 449.261719 477.167969 448.082031 C 477.875 446.902344 478.554688 445.707031 479.203125 444.492188 C 479.851562 443.28125 480.46875 442.054688 481.058594 440.8125 C 481.648438 439.570312 482.203125 438.3125 482.730469 437.042969 C 483.257812 435.773438 483.753906 434.488281 484.214844 433.195312 C 484.679688 431.902344 485.113281 430.597656 485.511719 429.28125 C 485.910156 427.964844 486.277344 426.640625 486.613281 425.308594 C 486.945312 423.972656 487.25 422.632812 487.515625 421.285156 C 487.785156 419.9375 488.019531 418.582031 488.222656 417.222656 C 488.425781 415.863281 488.59375 414.5 488.726562 413.128906 C 488.863281 411.761719 488.964844 410.390625 489.03125 409.019531 C 489.101562 407.644531 489.132812 406.269531 489.132812 404.898438 C 489.132812 403.523438 489.101562 402.148438 489.03125 400.773438 C 488.964844 399.402344 488.863281 398.03125 488.726562 396.664062 C 488.59375 395.296875 488.425781 393.929688 488.222656 392.570312 C 488.019531 391.210938 487.785156 389.855469 487.515625 388.507812 C 487.25 387.160156 486.945312 385.820312 486.613281 384.484375 C 486.277344 383.152344 485.910156 381.828125 485.511719 380.511719 C 485.113281 379.195312 484.679688 377.890625 484.214844 376.597656 C 483.753906 375.304688 483.257812 374.019531 482.730469 372.75 C 482.203125 371.480469 481.648438 370.226562 481.058594 368.980469 C 480.46875 367.738281 479.851562 366.511719 479.203125 365.300781 C 478.554688 364.085938 477.875 362.890625 477.167969 361.710938 C 476.460938 360.53125 475.722656 359.371094 474.957031 358.230469 C 474.195312 357.085938 473.402344 355.960938 472.582031 354.859375 C 471.761719 353.753906 470.914062 352.671875 470.042969 351.609375 C 469.167969 350.542969 468.269531 349.503906 467.34375 348.484375 C 466.421875 347.46875 465.472656 346.472656 464.5 345.5 C 463.527344 344.527344 462.527344 343.578125 461.507812 342.65625 C 460.488281 341.734375 459.445312 340.835938 458.382812 339.964844 C 457.320312 339.089844 456.234375 338.246094 455.128906 337.425781 C 454.023438 336.609375 452.898438 335.816406 451.753906 335.054688 C 450.609375 334.289062 449.445312 333.554688 448.265625 332.847656 C 447.085938 332.140625 445.886719 331.464844 444.671875 330.816406 C 443.460938 330.167969 442.230469 329.550781 440.984375 328.960938 C 439.742188 328.375 438.484375 327.816406 437.210938 327.289062 C 435.941406 326.765625 434.65625 326.269531 433.359375 325.808594 C 432.066406 325.34375 430.757812 324.914062 429.441406 324.511719 C 428.125 324.113281 426.796875 323.75 425.460938 323.414062 C 424.125 323.078125 422.785156 322.777344 421.433594 322.511719 C 420.085938 322.242188 418.726562 322.007812 417.367188 321.804688 C 416.003906 321.605469 414.640625 321.4375 413.269531 321.300781 C 411.898438 321.167969 410.527344 321.066406 409.152344 320.996094 C 407.777344 320.929688 406.402344 320.898438 405.027344 320.898438 Z M 615.296875 320.898438 C 613.917969 320.898438 612.542969 320.929688 611.167969 320.996094 C 609.792969 321.066406 608.421875 321.167969 607.050781 321.300781 C 605.679688 321.4375 604.316406 321.605469 602.953125 321.804688 C 601.59375 322.007812 600.238281 322.242188 598.886719 322.511719 C 597.535156 322.777344 596.195312 323.078125 594.859375 323.414062 C 593.523438 323.75 592.199219 324.113281 590.878906 324.511719 C 589.5625 324.914062 588.257812 325.34375 586.960938 325.808594 C 585.664062 326.269531 584.378906 326.765625 583.109375 327.289062 C 581.835938 327.816406 580.578125 328.375 579.335938 328.960938 C 578.089844 329.550781 576.859375 330.167969 575.648438 330.816406 C 574.433594 331.464844 573.234375 332.140625 572.054688 332.847656 C 570.875 333.554688 569.710938 334.289062 568.566406 335.054688 C 567.421875 335.816406 566.296875 336.609375 565.191406 337.425781 C 564.085938 338.246094 563 339.089844 561.9375 339.964844 C 560.875 340.835938 559.832031 341.734375 558.8125 342.65625 C 557.792969 343.578125 556.796875 344.527344 555.820312 345.5 C 554.847656 346.472656 553.898438 347.46875 552.976562 348.484375 C 552.050781 349.503906 551.152344 350.546875 550.277344 351.609375 C 549.40625 352.671875 548.558594 353.753906 547.738281 354.859375 C 546.917969 355.960938 546.125 357.085938 545.363281 358.230469 C 544.597656 359.371094 543.859375 360.53125 543.152344 361.710938 C 542.445312 362.890625 541.769531 364.085938 541.117188 365.300781 C 540.46875 366.511719 539.851562 367.738281 539.261719 368.980469 C 538.675781 370.226562 538.117188 371.480469 537.589844 372.75 C 537.0625 374.019531 536.566406 375.304688 536.105469 376.597656 C 535.640625 377.890625 535.207031 379.195312 534.808594 380.511719 C 534.410156 381.828125 534.042969 383.152344 533.707031 384.484375 C 533.375 385.820312 533.070312 387.160156 532.804688 388.507812 C 532.535156 389.855469 532.300781 391.210938 532.097656 392.570312 C 531.894531 393.929688 531.726562 395.296875 531.59375 396.664062 C 531.457031 398.03125 531.355469 399.402344 531.289062 400.773438 C 531.222656 402.148438 531.1875 403.523438 531.1875 404.898438 C 531.1875 406.269531 531.222656 407.644531 531.289062 409.019531 C 531.355469 410.390625 531.457031 411.761719 531.59375 413.128906 C 531.726562 414.5 531.894531 415.863281 532.097656 417.222656 C 532.300781 418.582031 532.535156 419.9375 532.804688 421.285156 C 533.070312 422.632812 533.375 423.972656 533.707031 425.308594 C 534.042969 426.640625 534.410156 427.964844 534.808594 429.28125 C 535.207031 430.597656 535.640625 431.902344 536.105469 433.195312 C 536.566406 434.488281 537.0625 435.773438 537.589844 437.042969 C 538.117188 438.3125 538.675781 439.570312 539.261719 440.8125 C 539.851562 442.054688 540.46875 443.28125 541.117188 444.492188 C 541.769531 445.707031 542.445312 446.902344 543.152344 448.082031 C 543.859375 449.261719 544.597656 450.421875 545.363281 451.566406 C 546.125 452.707031 546.917969 453.832031 547.738281 454.933594 C 548.558594 456.039062 549.40625 457.121094 550.277344 458.1875 C 551.152344 459.25 552.050781 460.289062 552.976562 461.308594 C 553.898438 462.324219 554.847656 463.320312 555.820312 464.292969 C 556.796875 465.265625 557.792969 466.214844 558.8125 467.136719 C 559.832031 468.058594 560.875 468.957031 561.9375 469.828125 C 563 470.703125 564.085938 471.546875 565.191406 472.367188 C 566.296875 473.183594 567.421875 473.976562 568.566406 474.738281 C 569.710938 475.503906 570.875 476.238281 572.054688 476.945312 C 573.234375 477.652344 574.433594 478.328125 575.648438 478.976562 C 576.859375 479.625 578.089844 480.242188 579.335938 480.832031 C 580.578125 481.417969 581.835938 481.976562 583.109375 482.503906 C 584.378906 483.027344 585.664062 483.523438 586.960938 483.984375 C 588.257812 484.449219 589.5625 484.878906 590.878906 485.28125 C 592.199219 485.679688 593.523438 486.046875 594.859375 486.378906 C 596.195312 486.714844 597.535156 487.015625 598.886719 487.28125 C 600.238281 487.550781 601.59375 487.785156 602.953125 487.988281 C 604.316406 488.1875 605.679688 488.355469 607.050781 488.492188 C 608.421875 488.625 609.792969 488.726562 611.167969 488.796875 C 612.542969 488.863281 613.917969 488.898438 615.296875 488.898438 C 616.671875 488.898438 618.046875 488.863281 619.421875 488.796875 C 620.796875 488.726562 622.167969 488.625 623.539062 488.492188 C 624.910156 488.355469 626.273438 488.1875 627.636719 487.988281 C 629 487.785156 630.355469 487.550781 631.703125 487.28125 C 633.054688 487.015625 634.398438 486.714844 635.730469 486.378906 C 637.066406 486.046875 638.394531 485.679688 639.710938 485.28125 C 641.027344 484.878906 642.335938 484.449219 643.628906 483.984375 C 644.925781 483.523438 646.210938 483.027344 647.480469 482.503906 C 648.753906 481.976562 650.011719 481.417969 651.257812 480.832031 C 652.5 480.242188 653.730469 479.625 654.945312 478.976562 C 656.15625 478.328125 657.355469 477.652344 658.535156 476.945312 C 659.714844 476.238281 660.878906 475.503906 662.023438 474.738281 C 663.167969 473.976562 664.292969 473.183594 665.398438 472.367188 C 666.503906 471.546875 667.589844 470.703125 668.652344 469.828125 C 669.71875 468.957031 670.757812 468.058594 671.777344 467.136719 C 672.796875 466.214844 673.796875 465.265625 674.769531 464.292969 C 675.742188 463.320312 676.691406 462.328125 677.613281 461.308594 C 678.539062 460.289062 679.4375 459.25 680.3125 458.1875 C 681.183594 457.121094 682.03125 456.039062 682.851562 454.933594 C 683.671875 453.832031 684.464844 452.707031 685.226562 451.566406 C 685.992188 450.421875 686.730469 449.261719 687.4375 448.082031 C 688.144531 446.902344 688.824219 445.707031 689.472656 444.492188 C 690.121094 443.28125 690.738281 442.054688 691.328125 440.8125 C 691.917969 439.570312 692.472656 438.3125 693 437.042969 C 693.527344 435.773438 694.023438 434.488281 694.488281 433.195312 C 694.949219 431.902344 695.382812 430.597656 695.78125 429.28125 C 696.179688 427.964844 696.546875 426.640625 696.882812 425.308594 C 697.21875 423.972656 697.519531 422.632812 697.789062 421.285156 C 698.054688 419.9375 698.289062 418.582031 698.492188 417.222656 C 698.695312 415.863281 698.863281 414.5 699 413.128906 C 699.132812 411.761719 699.234375 410.390625 699.300781 409.019531 C 699.371094 407.644531 699.402344 406.269531 699.402344 404.898438 C 699.402344 403.523438 699.371094 402.148438 699.300781 400.773438 C 699.234375 399.402344 699.132812 398.03125 699 396.664062 C 698.863281 395.296875 698.695312 393.929688 698.492188 392.570312 C 698.289062 391.210938 698.054688 389.855469 697.785156 388.507812 C 697.519531 387.160156 697.21875 385.820312 696.882812 384.484375 C 696.546875 383.152344 696.179688 381.828125 695.78125 380.511719 C 695.382812 379.195312 694.949219 377.890625 694.488281 376.597656 C 694.023438 375.304688 693.527344 374.019531 693 372.75 C 692.472656 371.480469 691.917969 370.226562 691.328125 368.980469 C 690.738281 367.738281 690.121094 366.511719 689.472656 365.300781 C 688.824219 364.085938 688.144531 362.890625 687.4375 361.710938 C 686.730469 360.53125 685.992188 359.371094 685.226562 358.230469 C 684.464844 357.085938 683.671875 355.960938 682.851562 354.859375 C 682.03125 353.753906 681.183594 352.671875 680.3125 351.609375 C 679.4375 350.542969 678.539062 349.503906 677.613281 348.484375 C 676.691406 347.46875 675.742188 346.472656 674.769531 345.5 C 673.796875 344.527344 672.796875 343.578125 671.777344 342.65625 C 670.757812 341.734375 669.71875 340.835938 668.652344 339.964844 C 667.589844 339.089844 666.503906 338.246094 665.398438 337.425781 C 664.292969 336.609375 663.167969 335.816406 662.023438 335.054688 C 660.878906 334.289062 659.714844 333.554688 658.535156 332.847656 C 657.355469 332.140625 656.15625 331.464844 654.945312 330.816406 C 653.730469 330.167969 652.5 329.550781 651.257812 328.960938 C 650.011719 328.375 648.753906 327.816406 647.480469 327.289062 C 646.210938 326.765625 644.925781 326.269531 643.628906 325.808594 C 642.335938 325.34375 641.027344 324.914062 639.710938 324.511719 C 638.394531 324.113281 637.066406 323.75 635.730469 323.414062 C 634.398438 323.078125 633.054688 322.777344 631.703125 322.511719 C 630.355469 322.242188 629 322.007812 627.636719 321.804688 C 626.273438 321.605469 624.910156 321.4375 623.539062 321.300781 C 622.167969 321.167969 620.796875 321.066406 619.421875 320.996094 C 618.046875 320.929688 616.671875 320.898438 615.296875 320.898438 Z M 615.296875 320.898438 "/></g></g></svg>