<svg xmlns="http://www.w3.org/2000/svg" xmlns:xlink="http://www.w3.org/1999/xlink" width="1080" zoomAndPan="magnify" viewBox="0 0 810 809.999993" height="1080" preserveAspectRatio="xMidYMid meet" version="1.2"><defs><clipPath id="6c5abbc600"><path d="M 405 0 C 181.324219 0 0 181.324219 0 405 C 0 628.675781 181.324219 810 405 810 C 628.675781 810 810 628.675781 810 405 C 810 181.324219 628.675781 0 405 0 Z M 405 0 "/></clipPath><clipPath id="c85934a572"><path d="M 164.484375 170.609375 L 645.234375 170.609375 L 645.234375 639.359375 L 164.484375 639.359375 Z M 164.484375 170.609375 "/></clipPath></defs><g id="e62975d4a5"><g clip-rule="nonzero" clip-path="url(#6c5abbc600)"><rect x="0" width="810" y="0" height="809.999993" style="fill:#ffdb6f;fill-opacity:1;stroke:none;"/></g><g clip-rule="nonzero" clip-path="url(#c85934a572)"><path style=" stroke:none;fill-rule:nonzero;fill:#3060a5;fill-opacity:1;" d="M 224.664062 170.609375 L 218.65625 182.621094 L 281.726562 218.660156 C 281.726562 248.695312 269.714844 272.71875 242.683594 287.734375 L 179.617188 251.695312 L 176.613281 257.703125 C 191.628906 302.753906 221.660156 332.785156 281.726562 332.785156 C 296.742188 332.785156 341.792969 377.835938 365.820312 401.859375 L 413.871094 353.808594 C 389.84375 329.78125 335.785156 275.722656 335.785156 260.707031 C 335.785156 206.648438 320.769531 170.609375 224.664062 170.609375 Z M 600.074219 185.625 L 540.007812 227.671875 L 534.003906 251.695312 L 359.8125 425.886719 L 335.785156 410.871094 L 323.773438 422.882812 C 323.773438 458.921875 281.726562 476.941406 263.707031 476.941406 L 164.597656 576.050781 C 164.597656 606.082031 197.636719 639.117188 227.667969 639.117188 L 326.777344 540.011719 C 326.777344 521.992188 344.796875 479.945312 380.835938 479.945312 L 392.847656 467.933594 L 377.832031 443.90625 L 552.023438 269.714844 L 576.046875 263.710938 L 618.09375 203.644531 Z M 449.910156 389.847656 L 401.859375 437.898438 C 437.898438 473.9375 485.949219 521.992188 485.949219 537.007812 C 485.949219 591.066406 500.964844 627.105469 597.070312 627.105469 L 603.078125 615.09375 L 540.007812 579.054688 C 540.007812 549.019531 552.023438 524.996094 579.050781 509.976562 L 642.121094 546.019531 L 645.125 540.011719 C 630.105469 494.960938 600.074219 464.929688 540.007812 464.929688 C 524.992188 464.929688 485.949219 425.886719 449.910156 389.847656 Z M 449.910156 389.847656 "/></g></g></svg>