<svg width="32" height="32" viewBox="0 0 32 32" fill="none" xmlns="http://www.w3.org/2000/svg">
<circle cx="16" cy="16" r="16" fill="#FFDB6F"/>
<g clip-path="url(#clip0_2012_689)">
<path d="M12.25 10.625C12.25 9.72871 13.0123 9 13.95 9H23.3C24.2377 9 25 9.72871 25 10.625V17.9375C25 18.8338 24.2377 19.5625 23.3 19.5625H16.9462C16.6328 18.915 16.152 18.3564 15.5544 17.9375H18.2V17.125C18.2 16.6756 18.5798 16.3125 19.05 16.3125H20.75C21.2202 16.3125 21.6 16.6756 21.6 17.125V17.9375H23.3V10.625H13.95V11.8717C13.4506 11.5949 12.8689 11.4375 12.25 11.4375V10.625ZM12.25 12.25C12.5849 12.25 12.9165 12.313 13.2258 12.4355C13.5352 12.558 13.8163 12.7376 14.0531 12.9639C14.2899 13.1903 14.4777 13.459 14.6059 13.7547C14.734 14.0504 14.8 14.3674 14.8 14.6875C14.8 15.0076 14.734 15.3246 14.6059 15.6203C14.4777 15.916 14.2899 16.1847 14.0531 16.4111C13.8163 16.6374 13.5352 16.817 13.2258 16.9395C12.9165 17.062 12.5849 17.125 12.25 17.125C11.9151 17.125 11.5835 17.062 11.2742 16.9395C10.9648 16.817 10.6837 16.6374 10.4469 16.4111C10.2101 16.1847 10.0223 15.916 9.89411 15.6203C9.76596 15.3246 9.7 15.0076 9.7 14.6875C9.7 14.3674 9.76596 14.0504 9.89411 13.7547C10.0223 13.459 10.2101 13.1903 10.4469 12.9639C10.6837 12.7376 10.9648 12.558 11.2742 12.4355C11.5835 12.313 11.9151 12.25 12.25 12.25ZM11.5408 17.9375H12.9566C14.9142 17.9375 16.5 19.4533 16.5 21.3221C16.5 21.6953 16.1839 22 15.7908 22H8.70922C8.31609 22 8 21.6979 8 21.3221C8 19.4533 9.58578 17.9375 11.5408 17.9375Z" fill="#2F60A5"/>
</g>
<defs>
<clipPath id="clip0_2012_689">
<rect width="17" height="13" fill="white" transform="translate(8 9)"/>
</clipPath>
</defs>
</svg>
