<svg width="32" height="32" viewBox="0 0 32 32" fill="none" xmlns="http://www.w3.org/2000/svg">
<circle cx="16" cy="16" r="16" fill="#FFDB6F"/>
<path d="M11.9934 14.9414C13.2806 15.75 14.3958 16.8203 15.2705 18.0859C15.5378 18.4727 15.7823 18.8789 16 19.2969C16.2177 18.875 16.4622 18.4727 16.7295 18.0859C17.6042 16.8203 18.7194 15.75 20.0066 14.9414C21.7139 13.8672 23.7191 13.25 25.8542 13.25H26.2323C26.6562 13.25 27 13.6016 27 14.0352C27 19.8164 22.4205 24.5 16.7677 24.5H16H15.2323C9.57951 24.5 5 19.8164 5 14.0352C5 13.6016 5.34375 13.25 5.76771 13.25H6.14583C8.2809 13.25 10.2861 13.8672 11.9934 14.9414ZM16.5156 7.21875C17.1153 7.87891 18.8493 10.0234 19.7392 13.6484C18.2878 14.4922 17.0122 15.6328 16 16.9922C14.9878 15.6328 13.7122 14.4961 12.2608 13.6484C13.1469 10.0234 14.8809 7.87891 15.4844 7.21875C15.6181 7.07422 15.8052 7 16 7C16.1948 7 16.3819 7.07422 16.5156 7.21875Z" fill="#2F60A5"/>
</svg>
