<svg width="96" height="96" viewBox="0 0 96 96" fill="none" xmlns="http://www.w3.org/2000/svg">
<path d="M39.2827 2.72852C39.8103 2.62126 40.3617 2.70028 40.8403 2.95703C41.3734 3.24307 41.7709 3.72701 41.9526 4.30273L42.9624 3.98047L43.1851 3.92188C44.3009 3.68398 45.4418 4.29881 45.8423 5.3916L46.4956 7.17578C46.713 7.76922 46.679 8.42563 46.4009 8.99316C46.1228 9.56063 45.6251 9.98987 45.0229 10.1816L31.9507 14.3438C30.7678 14.7203 29.4988 14.0982 29.0718 12.9326L28.4175 11.1494C28.2001 10.556 28.2351 9.89952 28.5132 9.33203C28.7913 8.7645 29.2889 8.33434 29.8911 8.14258L30.3628 7.99219L30.3257 7.86621C29.9799 6.65492 30.6655 5.38879 31.8687 5.01562L39.0581 2.78613L39.2827 2.72852Z" fill="#1984CE" stroke="#FFDB6F" stroke-width="4.63591" stroke-linejoin="round"/>
<path d="M33.1522 11.1182C40.272 8.82616 48.2533 7.02422 54.8377 8.14062C58.1953 8.70991 61.3112 10.0578 63.7254 12.5889C66.1402 15.1205 67.6565 18.6299 68.1903 23.1621C68.6793 27.3148 68.1442 32.8441 63.659 37.625C59.2388 42.3366 51.3349 45.9347 37.994 47.1484C36.7488 47.2617 35.6376 46.3667 35.4832 45.126L31.5623 13.6113C31.4249 12.5064 32.0923 11.4594 33.1522 11.1182Z" fill="#1984CE" stroke="#FFDB6F" stroke-width="4.63591" stroke-linejoin="round"/>
<path d="M49.3938 16.1054C51.0724 16.0503 52.7778 16.146 54.3036 16.6181C55.8791 17.1055 57.3148 18.0137 58.2728 19.5674C59.2059 21.081 59.5328 22.9604 59.4171 25.1079C59.347 26.4102 59.5086 29.9123 57.5656 32.7011C55.4013 35.8076 51.3016 37.4115 44.5602 36.9519C43.3978 36.8726 42.4997 35.9514 42.4595 34.7975L42.1442 25.7054C42.1439 25.6962 42.1436 25.6867 42.1434 25.6776L41.9929 19.0236C41.966 17.8265 42.8717 16.7814 44.0758 16.6197C45.8792 16.3774 47.7011 16.161 49.3938 16.1054Z" fill="white" stroke="#FFDB6F" stroke-width="4.63591" stroke-linejoin="round"/>
<path d="M55.8818 43.125C56.7275 43.0507 57.5521 43.4465 58.0225 44.1641L78.2842 75.085C78.6387 75.6262 78.751 76.2913 78.5938 76.9189C78.5257 77.1905 78.4065 77.4422 78.251 77.668C79.6685 77.4707 80.9091 77.1464 81.8125 76.6768L81.9951 76.5918C82.0573 76.5661 82.1204 76.5427 82.1846 76.5225C83.6577 76.0585 85.3402 75.6059 86.8564 75.332C87.6125 75.1955 88.3757 75.094 89.0771 75.0684C89.7212 75.0448 90.5585 75.0728 91.3223 75.3643C91.7279 75.5191 92.2385 75.796 92.6553 76.3008C93.1039 76.844 93.3184 77.5006 93.3184 78.1592C93.3182 79.2875 92.6987 80.2216 92.2256 80.8213C91.1807 82.1457 89.2043 83.825 86.1865 85.9736C86.0657 86.0597 85.9368 86.1339 85.8018 86.1953C84.2772 86.8888 81.0478 87.8555 77.1621 87.915C77.623 88.9679 77.2413 90.2171 76.2402 90.8242L72.3184 93.2031C71.2477 93.8522 69.8549 93.5334 69.1729 92.4834L53.5029 68.3574C52.6131 70.9767 51.1791 73.4955 48.9854 75.6143C43.2383 81.1648 33.1488 83.1921 16.8906 78.585C16.0808 78.3555 15.4584 77.7051 15.2656 76.8857C15.1479 76.3851 15.2026 75.8696 15.4043 75.415L12.4561 76.1602C11.2056 76.7924 9.80672 77.4185 8.5498 77.8262C7.88814 78.0408 7.17515 78.2251 6.49805 78.293C5.94037 78.3488 4.85385 78.3922 3.91406 77.7285C2.65126 76.8365 2.56998 75.4337 2.76855 74.5146C2.95004 73.675 3.40785 72.8356 3.93555 72.0469C5.02589 70.4171 6.98059 68.1899 10.0107 65.1934L10.1865 65.0361C10.2477 64.9869 10.311 64.9403 10.377 64.8975C11.3234 64.2824 12.8698 63.5107 14.6045 63.0879C15.2002 62.9427 15.8648 62.829 16.5645 62.7891C16.6147 62.5538 16.7006 62.3255 16.8232 62.1133C17.1336 61.5764 17.646 61.1864 18.2461 61.0303L22.8213 59.8408L23.0078 59.8008C23.9386 59.6386 24.8837 60.0588 25.3828 60.876L28.1963 65.4824C29.6293 65.9162 30.8042 66.1834 32 66.2344C33.3731 66.2929 34.9044 66.0706 36.9414 65.2764C37.5566 65.0365 39.0205 63.2018 37.7129 60.8223C37.2417 59.965 36.7983 59.2944 36.25 58.3711C35.7456 57.5217 35.216 56.5533 34.8506 55.4609C34.062 53.1036 34.1619 50.5416 35.7012 47.3906L35.7666 47.2656C36.1116 46.6562 36.7159 46.2332 37.4121 46.1201L55.7129 43.1465L55.8818 43.125Z" fill="#1984CE" stroke="#FFDB6F" stroke-width="4.63591" stroke-linejoin="round"/>
<path d="M44.3196 7.97313L31.2478 12.1355L30.5942 10.3516L33.2086 9.51916L32.555 7.22985L39.7445 5L40.3981 7.22985L43.666 6.18925L44.3196 7.97313Z" fill="#2F60A5"/>
<path d="M33.8622 13.3248L37.7837 44.84C63.9272 42.4615 66.7656 30.8859 65.8879 23.4334C63.9272 6.78393 48.0232 8.76601 33.8622 13.3248Z" fill="#2F60A5"/>
<path d="M57.0907 25.0517C57.4925 17.5964 51.5032 17.9402 44.3223 18.9049L44.472 25.5595L44.7875 34.651C57.5568 35.5217 56.9108 28.3888 57.0907 25.0517Z" fill="#FFDB6F"/>
<path d="M76.3453 76.3551L56.0841 45.4346L37.7837 48.4077C35.1693 53.7593 37.7837 56.1378 39.7444 59.7056C41.7052 63.2733 39.7444 66.6712 37.7837 67.4357C33.2086 69.2196 30.3764 68.625 26.6727 67.4357L23.4048 62.0841L18.8296 63.2733L19.4832 65.6518C16.8689 64.2247 13.1652 65.85 11.6402 66.8411C-0.385828 78.7336 6.62934 76.5533 11.6402 73.9766L23.4048 71.0035L17.5225 76.3551C49.4175 85.3934 53.6876 67.4357 52.1626 56.7325C54.777 59.111 54.5591 62.8769 54.1234 65.0572L71.1166 91.2207L75.0382 88.8422L73.0774 85.2745C78.3061 86.2259 83.0991 84.8781 84.842 84.0852C96.868 75.5226 88.5456 76.9497 82.8812 78.7336C79.2211 80.6364 72.6417 80.3193 69.8095 79.9229L76.3453 76.3551Z" fill="#2F60A5"/>
</svg>
