<svg xmlns="http://www.w3.org/2000/svg" xmlns:xlink="http://www.w3.org/1999/xlink" width="1080" zoomAndPan="magnify" viewBox="0 0 810 817.92" height="1080" preserveAspectRatio="xMidYMid meet" version="1.2"><defs><clipPath id="c4cd9a45f4"><path d="M 0.0390625 0 L 809.960938 0 L 809.960938 809.921875 L 0.0390625 809.921875 Z M 0.0390625 0 "/></clipPath><clipPath id="48fe2208db"><path d="M 405 0 C 181.347656 0 0.0390625 181.308594 0.0390625 404.960938 C 0.0390625 628.613281 181.347656 809.921875 405 809.921875 C 628.652344 809.921875 809.960938 628.613281 809.960938 404.960938 C 809.960938 181.308594 628.652344 0 405 0 Z M 405 0 "/></clipPath><clipPath id="df83708f48"><path d="M 269.277344 118 L 540.753906 118 L 540.753906 692 L 269.277344 692 Z M 269.277344 118 "/></clipPath></defs><g id="f22f871484"><g clip-rule="nonzero" clip-path="url(#c4cd9a45f4)"><g clip-rule="nonzero" clip-path="url(#48fe2208db)"><path style=" stroke:none;fill-rule:nonzero;fill:#ffdb6f;fill-opacity:1;" d="M 0.0390625 0 L 809.960938 0 L 809.960938 809.921875 L 0.0390625 809.921875 Z M 0.0390625 0 "/></g></g><g clip-rule="nonzero" clip-path="url(#df83708f48)"><path style=" stroke:none;fill-rule:nonzero;fill:#3060a5;fill-opacity:1;" d="M 478.082031 212.996094 L 540.699219 212.996094 L 540.699219 118.589844 L 460.742188 118.589844 L 460.742188 118.949219 C 355.617188 122.804688 333.945312 181.6875 332.136719 243.945312 L 331.894531 243.945312 L 331.894531 309.449219 L 269.277344 309.449219 L 269.277344 403.980469 L 331.894531 403.980469 L 331.894531 691.296875 L 444.246094 691.296875 L 444.246094 403.980469 L 524.804688 403.980469 L 540.699219 309.449219 L 444.246094 309.449219 L 444.246094 250.808594 C 444.246094 229.976562 458.214844 212.996094 478.082031 212.996094 Z M 478.082031 212.996094 "/></g></g></svg>