<svg xmlns="http://www.w3.org/2000/svg" xmlns:xlink="http://www.w3.org/1999/xlink" width="1080" zoomAndPan="magnify" viewBox="0 0 810 817.92" height="1080" preserveAspectRatio="xMidYMid meet" version="1.2"><defs><clipPath id="3bcb48ef2b"><path d="M 0.0390625 0 L 809.960938 0 L 809.960938 809.921875 L 0.0390625 809.921875 Z M 0.0390625 0 "/></clipPath><clipPath id="858ce6cc4a"><path d="M 405 0 C 181.347656 0 0.0390625 181.308594 0.0390625 404.960938 C 0.0390625 628.613281 181.347656 809.921875 405 809.921875 C 628.652344 809.921875 809.960938 628.613281 809.960938 404.960938 C 809.960938 181.308594 628.652344 0 405 0 Z M 405 0 "/></clipPath><clipPath id="35b8b00e73"><path d="M 181.09375 181.050781 L 628.796875 181.050781 L 628.796875 628.757812 L 181.09375 628.757812 Z M 181.09375 181.050781 "/></clipPath></defs><g id="be06de9995"><g clip-rule="nonzero" clip-path="url(#3bcb48ef2b)"><g clip-rule="nonzero" clip-path="url(#858ce6cc4a)"><path style=" stroke:none;fill-rule:nonzero;fill:#ffdb6f;fill-opacity:1;" d="M 0.0390625 0 L 809.960938 0 L 809.960938 809.921875 L 0.0390625 809.921875 Z M 0.0390625 0 "/></g></g><g clip-rule="nonzero" clip-path="url(#35b8b00e73)"><path style=" stroke:none;fill-rule:nonzero;fill:#3060a5;fill-opacity:1;" d="M 406.179688 181.050781 C 344.511719 181.050781 337.109375 181.050781 313.675781 182.285156 C 290.242188 182.285156 272.976562 187.21875 259.410156 192.152344 C 244.609375 198.320312 232.277344 205.71875 219.941406 218.054688 C 207.609375 230.386719 200.210938 242.71875 194.042969 257.519531 C 187.875 272.320312 184.175781 288.355469 184.175781 311.789062 C 181.707031 337.6875 181.707031 345.089844 181.707031 405.523438 C 181.707031 467.191406 181.707031 474.589844 182.941406 498.023438 C 182.941406 521.457031 187.875 538.722656 192.808594 552.292969 C 198.976562 567.089844 206.375 579.425781 218.710938 591.757812 C 231.042969 604.09375 243.375 611.492188 258.175781 617.660156 C 272.976562 623.824219 289.011719 627.527344 312.445312 627.527344 C 335.878906 627.527344 344.511719 628.757812 404.945312 628.757812 C 465.378906 628.757812 474.011719 628.757812 497.445312 627.527344 C 520.878906 627.527344 538.148438 622.59375 551.714844 617.660156 C 566.515625 611.492188 578.847656 604.09375 591.179688 591.757812 C 603.515625 579.425781 610.914062 567.089844 617.082031 552.292969 C 622.015625 537.492188 626.949219 521.457031 626.949219 498.023438 C 626.949219 474.589844 628.183594 465.957031 628.183594 405.523438 C 628.183594 343.855469 628.183594 336.453125 626.949219 313.019531 C 626.949219 289.585938 622.015625 272.320312 617.082031 258.753906 C 610.914062 243.953125 603.515625 231.621094 591.179688 219.285156 C 578.847656 206.953125 566.515625 199.554688 551.714844 193.386719 C 536.914062 187.21875 520.878906 183.519531 497.445312 183.519531 C 475.246094 181.050781 467.847656 181.050781 406.179688 181.050781 Z M 386.445312 221.753906 C 392.613281 221.753906 398.777344 221.753906 406.179688 221.753906 C 466.613281 221.753906 472.78125 221.753906 497.445312 222.988281 C 519.648438 222.988281 530.746094 227.921875 539.378906 230.386719 C 550.480469 234.085938 557.878906 239.019531 565.28125 247.652344 C 572.679688 255.054688 577.613281 262.453125 582.546875 273.554688 C 585.015625 280.953125 588.714844 293.289062 589.949219 315.488281 C 589.949219 338.921875 591.179688 346.320312 591.179688 406.753906 C 591.179688 467.191406 591.179688 473.355469 589.949219 498.023438 C 589.949219 520.222656 585.015625 531.324219 582.546875 539.957031 C 578.847656 551.058594 573.914062 558.457031 565.28125 565.859375 C 557.878906 573.257812 550.480469 578.191406 539.378906 583.125 C 531.980469 586.824219 519.648438 589.292969 497.445312 590.523438 C 474.011719 590.523438 466.613281 591.757812 406.179688 591.757812 C 345.746094 591.757812 339.578125 591.757812 314.910156 590.523438 C 292.710938 590.523438 281.609375 585.589844 272.976562 583.125 C 261.875 579.425781 254.476562 574.492188 247.078125 565.859375 C 239.675781 558.457031 234.742188 551.058594 229.808594 539.957031 C 227.34375 532.558594 223.644531 520.222656 222.410156 498.023438 C 222.410156 474.589844 221.175781 467.191406 221.175781 406.753906 C 221.175781 346.320312 221.175781 340.15625 222.410156 315.488281 C 222.410156 293.289062 227.34375 282.1875 229.808594 273.554688 C 233.507812 262.453125 238.441406 255.054688 247.078125 247.652344 C 254.476562 240.253906 261.875 235.320312 272.976562 230.386719 C 280.378906 226.6875 292.710938 224.21875 314.910156 222.988281 C 335.878906 222.988281 343.277344 222.988281 385.210938 221.753906 Z M 406.179688 290.820312 C 342.042969 290.820312 290.242188 342.621094 290.242188 406.753906 C 290.242188 470.890625 342.042969 522.691406 406.179688 522.691406 C 470.3125 522.691406 522.113281 470.890625 522.113281 406.753906 C 522.113281 342.621094 470.3125 290.820312 406.179688 290.820312 Z M 406.179688 331.519531 C 448.113281 331.519531 481.414062 364.820312 481.414062 406.753906 C 481.414062 448.691406 448.113281 481.988281 406.179688 481.988281 C 364.246094 481.988281 330.945312 448.691406 330.945312 406.753906 C 330.945312 364.820312 364.246094 331.519531 406.179688 331.519531 Z M 406.179688 331.519531 "/></g></g></svg>