<svg xmlns="http://www.w3.org/2000/svg" xmlns:xlink="http://www.w3.org/1999/xlink" width="1080" zoomAndPan="magnify" viewBox="0 0 810 817.92" height="1080" preserveAspectRatio="xMidYMid meet" version="1.2"><defs><clipPath id="2aca6f51d3"><path d="M 0.0390625 0 L 809.960938 0 L 809.960938 809.921875 L 0.0390625 809.921875 Z M 0.0390625 0 "/></clipPath><clipPath id="21380cfd4f"><path d="M 405 0 C 181.347656 0 0.0390625 181.308594 0.0390625 404.960938 C 0.0390625 628.613281 181.347656 809.921875 405 809.921875 C 628.652344 809.921875 809.960938 628.613281 809.960938 404.960938 C 809.960938 181.308594 628.652344 0 405 0 Z M 405 0 "/></clipPath><clipPath id="97ac748fde"><path d="M 189 183.230469 L 471 183.230469 L 471 626.4375 L 189 626.4375 Z M 189 183.230469 "/></clipPath></defs><g id="920feb52d8"><g clip-rule="nonzero" clip-path="url(#2aca6f51d3)"><g clip-rule="nonzero" clip-path="url(#21380cfd4f)"><path style=" stroke:none;fill-rule:nonzero;fill:#ffdb6f;fill-opacity:1;" d="M 0.0390625 0 L 809.960938 0 L 809.960938 809.921875 L 0.0390625 809.921875 Z M 0.0390625 0 "/></g></g><path style=" stroke:none;fill-rule:nonzero;fill:#3060a5;fill-opacity:1;" d="M 468.101562 261.105469 C 460.972656 236.738281 455.902344 212.070312 469.820312 184.589844 C 471.675781 184.453125 486.875 184.742188 487.421875 184.792969 C 490.675781 185.101562 493.949219 185.558594 497.15625 186.152344 C 557.796875 197.332031 607.4375 256.742188 615.945312 289.042969 C 618.707031 299.640625 619.054688 305.136719 619.816406 313.800781 C 622.84375 349.917969 598.308594 411.296875 559 429.402344 C 579.496094 412.636719 613.867188 325.042969 513.496094 274.625 C 487.246094 261.4375 468.285156 257.699219 468.101562 261.105469 Z M 468.101562 261.105469 "/><path style=" stroke:none;fill-rule:evenodd;fill:#3060a5;fill-opacity:1;" d="M 394 185.144531 L 469.5625 184.871094 C 466.824219 230.039062 469.285156 489.835938 469.285156 489.835938 C 468.738281 532.539062 450.398438 564.292969 428.222656 585.367188 C 426.308594 587.289062 424.394531 589.203125 422.199219 590.84375 C 393.730469 614.9375 365.808594 626.160156 327.480469 625.886719 C 289.703125 625.34375 261.230469 611.105469 237.144531 590.300781 C 219.078125 574.699219 204.566406 554.4375 196.355469 526.511719 C 178.558594 465.195312 201.554688 405.515625 252.472656 370.75 C 253.296875 369.929688 254.386719 369.105469 255.484375 368.558594 C 278.753906 352.40625 314.890625 342.828125 348.5625 348.300781 L 348.5625 425.503906 C 325.292969 419.476562 304.488281 424.679688 289.15625 437.542969 C 288.886719 437.542969 288.886719 437.820312 288.605469 438.09375 C 273.828125 450.683594 265.335938 469.304688 266.433594 490.378906 C 269.171875 528.160156 300.378906 551.699219 334.324219 550.058594 C 334.324219 550.058594 334.601562 550.058594 334.601562 550.058594 C 367.449219 546.773438 394.550781 519.949219 393.730469 483.808594 Z M 394 185.144531 "/><g clip-rule="nonzero" clip-path="url(#97ac748fde)"><path style="fill:none;stroke-width:0.17;stroke-linecap:round;stroke-linejoin:miter;stroke:#000000;stroke-opacity:1;stroke-miterlimit:1.5;" d="M 21545.698402 20747.500084 L 21573.300806 20747.4002 C 21572.300533 20763.899713 21573.199494 20858.801526 21573.199494 20858.801526 C 21572.999725 20874.400651 21566.30032 20886.00011 21558.199677 20893.698361 C 21557.500485 20894.400408 21556.801292 20895.0996 21555.999361 20895.698908 C 21545.599945 20904.50017 21535.400297 20908.599721 21521.399326 20908.499836 C 21507.599551 20908.301494 21497.198707 20903.100359 21488.400299 20895.500565 C 21481.800778 20889.801434 21476.499758 20882.399983 21473.500366 20872.198908 C 21466.999303 20849.800494 21475.399601 20827.99996 21493.999545 20815.300343 C 21494.300626 20815.000689 21494.698738 20814.699609 21495.099703 20814.499839 C 21503.599885 20808.599512 21516.800352 20805.100696 21529.100431 20807.099815 L 21529.100431 20835.301527 C 21520.600249 20833.099784 21513.000456 20835.000446 21507.399782 20839.699304 C 21507.301324 20839.699304 21507.301324 20839.800616 21507.198586 20839.9005 C 21501.800535 20844.499474 21498.698404 20851.301617 21499.099369 20858.999868 C 21500.099642 20872.80107 21511.499332 20881.39971 21523.899296 20880.800402 C 21523.899296 20880.800402 21524.000607 20880.800402 21524.000607 20880.800402 C 21535.999605 20879.600359 21545.899598 20869.801677 21545.599945 20856.599783 Z M 21545.698402 20747.500084 " transform="matrix(2.737533,0,0,2.737533,-58588.067501,-56611.82847)"/></g></g></svg>