<svg width="78" height="76" viewBox="0 0 78 76" fill="none" xmlns="http://www.w3.org/2000/svg">
<g filter="url(#filter0_d_2111_696)">
<ellipse cx="38.6412" cy="38" rx="28.6412" ry="28" fill="#2F60A5"/>
</g>
<path d="M24 32.3333H54M24 32.3333V48.9559C24 51.0717 24 52.129 24.4087 52.9371C24.7683 53.6479 25.3415 54.2265 26.0471 54.5886C26.8485 55 27.8981 55 29.9942 55H48.0058C50.1019 55 51.15 55 51.9514 54.5886C52.657 54.2265 53.2321 53.6479 53.5917 52.9371C54 52.1298 54 51.0739 54 48.9623V32.3333M24 32.3333V30.8226C24 28.7068 24 27.6482 24.4087 26.8401C24.7683 26.1292 25.3415 25.5517 26.0471 25.1895C26.8493 24.7778 27.9002 24.7778 30.0004 24.7778H31.5M54 32.3333V30.8164C54 28.7048 54 27.6474 53.5917 26.8401C53.2321 26.1292 52.657 25.5517 51.9514 25.1895C51.1492 24.7778 50.1006 24.7778 48.0004 24.7778H46.5M46.5 21V24.7778M46.5 24.7778H31.5M31.5 21V24.7778" stroke="#FFDB6F" stroke-width="2" stroke-linecap="round" stroke-linejoin="round"/>
<defs>
<filter id="filter0_d_2111_696" x="0" y="0" width="77.2825" height="76" filterUnits="userSpaceOnUse" color-interpolation-filters="sRGB">
<feFlood flood-opacity="0" result="BackgroundImageFix"/>
<feColorMatrix in="SourceAlpha" type="matrix" values="0 0 0 0 0 0 0 0 0 0 0 0 0 0 0 0 0 0 127 0" result="hardAlpha"/>
<feOffset/>
<feGaussianBlur stdDeviation="5"/>
<feComposite in2="hardAlpha" operator="out"/>
<feColorMatrix type="matrix" values="0 0 0 0 0 0 0 0 0 0 0 0 0 0 0 0 0 0 0.3 0"/>
<feBlend mode="normal" in2="BackgroundImageFix" result="effect1_dropShadow_2111_696"/>
<feBlend mode="normal" in="SourceGraphic" in2="effect1_dropShadow_2111_696" result="shape"/>
</filter>
</defs>
</svg>
