<svg width="22" height="23" viewBox="0 0 22 23" fill="none" xmlns="http://www.w3.org/2000/svg">
<path d="M1 8H20.0941M1 8V18.2669C1 19.5737 1 20.2267 1.26014 20.7259C1.48897 21.1649 1.85383 21.5222 2.30293 21.7459C2.81299 22 3.48104 22 4.81514 22H16.279C17.6131 22 18.2802 22 18.7902 21.7459C19.2393 21.5222 19.6054 21.1649 19.8343 20.7259C20.0941 20.2272 20.0941 19.5751 20.0941 18.2708V8M1 8V7.06689C1 5.76011 1 5.10622 1.26014 4.6071C1.48897 4.16805 1.85383 3.81136 2.30293 3.58765C2.81349 3.33333 3.48235 3.33333 4.81906 3.33333H5.77354M20.0941 8V7.06306C20.0941 5.75883 20.0941 5.10574 19.8343 4.6071C19.6054 4.16805 19.2393 3.81136 18.7902 3.58765C18.2797 3.33333 17.6123 3.33333 16.2756 3.33333H15.3206M15.3206 1V3.33333M15.3206 3.33333H5.77354M5.77354 1V3.33333" stroke="#FFDB6F" stroke-width="2" stroke-linecap="round" stroke-linejoin="round"/>
</svg>
