<svg width="22" height="24" viewBox="0 0 22 24" fill="none" xmlns="http://www.w3.org/2000/svg">
<path d="M1.02542 8.33331H20.1196M1.02542 8.33331V18.6002C1.02542 19.907 1.02542 20.56 1.28556 21.0592C1.51439 21.4982 1.87925 21.8555 2.32835 22.0792C2.83841 22.3333 3.50646 22.3333 4.84056 22.3333H16.3044C17.6385 22.3333 18.3056 22.3333 18.8157 22.0792C19.2648 21.8555 19.6309 21.4982 19.8597 21.0592C20.1196 20.5605 20.1196 19.9084 20.1196 18.6042V8.33331M1.02542 8.33331V7.40021C1.02542 6.09342 1.02542 5.43954 1.28556 4.94041C1.51439 4.50136 1.87925 4.14467 2.32835 3.92096C2.83891 3.66665 3.50777 3.66665 4.84448 3.66665H5.79896M20.1196 8.33331V7.39637C20.1196 6.09214 20.1196 5.43905 19.8597 4.94041C19.6309 4.50136 19.2648 4.14467 18.8157 3.92096C18.3051 3.66665 17.6377 3.66665 16.301 3.66665H15.346M15.346 1.33331V3.66665M15.346 3.66665H5.79896M5.79896 1.33331V3.66665" stroke="#2F60A5" stroke-width="2" stroke-linecap="round" stroke-linejoin="round"/>
</svg>
