<svg width="19" height="25" viewBox="0 0 19 25" fill="none" xmlns="http://www.w3.org/2000/svg">
<path d="M0 21.25V18.75H2.375V10C2.375 8.27083 2.86979 6.73958 3.85938 5.40625C4.84896 4.05208 6.13542 3.16667 7.71875 2.75V1.875C7.71875 1.35417 7.88698 0.916666 8.22344 0.562499C8.57969 0.1875 9.00521 0 9.5 0C9.99479 0 10.4104 0.1875 10.7469 0.562499C11.1031 0.916666 11.2812 1.35417 11.2812 1.875V2.75C12.8646 3.16667 14.151 4.05208 15.1406 5.40625C16.1302 6.73958 16.625 8.27083 16.625 10V18.75H19V21.25H0ZM9.5 25C8.84688 25 8.28281 24.7604 7.80781 24.2812C7.35261 23.7812 7.125 23.1875 7.125 22.5H11.875C11.875 23.1875 11.6375 23.7812 11.1625 24.2812C10.7073 24.7604 10.1531 25 9.5 25ZM4.75 18.75H14.25V10C14.25 8.625 13.7849 7.44792 12.8547 6.46875C11.9245 5.48958 10.8063 5 9.5 5C8.19375 5 7.07552 5.48958 6.14531 6.46875C5.2151 7.44792 4.75 8.625 4.75 10V18.75Z" fill="#2F60A5"/>
</svg>
