<svg width="78" height="76" viewBox="0 0 78 76" fill="none" xmlns="http://www.w3.org/2000/svg">
<g filter="url(#filter0_d_2112_723)">
<ellipse cx="38.6412" cy="38" rx="28.6412" ry="28" fill="#2F60A5"/>
</g>
<path d="M26 48.6V45H29.25V32.4C29.25 29.91 29.9271 27.705 31.2812 25.785C32.6354 23.835 34.3958 22.56 36.5625 21.96V20.7C36.5625 19.95 36.7927 19.32 37.2531 18.81C37.7406 18.27 38.3229 18 39 18C39.6771 18 40.2458 18.27 40.7063 18.81C41.1938 19.32 41.4375 19.95 41.4375 20.7V21.96C43.6042 22.56 45.3646 23.835 46.7188 25.785C48.0729 27.705 48.75 29.91 48.75 32.4V45H52V48.6H26ZM39 54C38.1063 54 37.3344 53.655 36.6844 52.965C36.0615 52.245 35.75 51.39 35.75 50.4H42.25C42.25 51.39 41.925 52.245 41.275 52.965C40.6521 53.655 39.8938 54 39 54ZM32.5 45H45.5V32.4C45.5 30.42 44.8635 28.725 43.5906 27.315C42.3177 25.905 40.7875 25.2 39 25.2C37.2125 25.2 35.6823 25.905 34.4094 27.315C33.1365 28.725 32.5 30.42 32.5 32.4V45Z" fill="#FFDB6F"/>
<defs>
<filter id="filter0_d_2112_723" x="0" y="0" width="77.2825" height="76" filterUnits="userSpaceOnUse" color-interpolation-filters="sRGB">
<feFlood flood-opacity="0" result="BackgroundImageFix"/>
<feColorMatrix in="SourceAlpha" type="matrix" values="0 0 0 0 0 0 0 0 0 0 0 0 0 0 0 0 0 0 127 0" result="hardAlpha"/>
<feOffset/>
<feGaussianBlur stdDeviation="5"/>
<feComposite in2="hardAlpha" operator="out"/>
<feColorMatrix type="matrix" values="0 0 0 0 0 0 0 0 0 0 0 0 0 0 0 0 0 0 0.3 0"/>
<feBlend mode="normal" in2="BackgroundImageFix" result="effect1_dropShadow_2112_723"/>
<feBlend mode="normal" in="SourceGraphic" in2="effect1_dropShadow_2112_723" result="shape"/>
</filter>
</defs>
</svg>
