<?xml version="1.0" encoding="UTF-8"?>
<svg xmlns="http://www.w3.org/2000/svg" xmlns:xlink="http://www.w3.org/1999/xlink" width="19px" height="25px" viewBox="0 0 19 19" version="1.1">
<defs>
<clipPath id="clip1">
  <path d="M 5.660156 5.660156 L 13.339844 5.660156 L 13.339844 13.339844 L 5.660156 13.339844 Z M 5.660156 5.660156 "/>
</clipPath>
<clipPath id="clip2">
  <path d="M 9.5 5.660156 C 7.378906 5.660156 5.660156 7.378906 5.660156 9.5 C 5.660156 11.621094 7.378906 13.339844 9.5 13.339844 C 11.621094 13.339844 13.339844 11.621094 13.339844 9.5 C 13.339844 7.378906 11.621094 5.660156 9.5 5.660156 Z M 9.5 5.660156 "/>
</clipPath>
<clipPath id="clip3">
  <path d="M 6.804688 7.148438 L 12.195312 7.148438 L 12.195312 11.851562 L 6.804688 11.851562 Z M 6.804688 7.148438 "/>
</clipPath>
</defs>
<g id="surface1">
<g clip-path="url(#clip1)" clip-rule="nonzero">
<g clip-path="url(#clip2)" clip-rule="nonzero">
<path style=" stroke:none;fill-rule:nonzero;fill:rgb(23.529412%,41.568628%,66.666669%);fill-opacity:1;" d="M 5.660156 5.660156 L 13.339844 5.660156 L 13.339844 13.339844 L 5.660156 13.339844 Z M 5.660156 5.660156 "/>
</g>
</g>
<g clip-path="url(#clip3)" clip-rule="nonzero">
<path style=" stroke:none;fill-rule:nonzero;fill:rgb(94.901961%,82.745099%,44.705883%);fill-opacity:1;" d="M 11.59375 7.953125 L 11.042969 7.953125 C 10.984375 7.855469 10.875 7.785156 10.753906 7.78125 L 10.753906 7.773438 C 10.753906 7.429688 10.472656 7.148438 10.128906 7.148438 L 8.871094 7.148438 C 8.527344 7.148438 8.246094 7.429688 8.246094 7.773438 L 8.246094 7.78125 C 8.125 7.785156 8.015625 7.855469 7.957031 7.953125 L 7.40625 7.953125 C 7.074219 7.953125 6.808594 8.222656 6.808594 8.550781 L 6.808594 9.117188 C 6.808594 9.320312 6.851562 9.507812 6.941406 9.679688 L 6.941406 11.1875 C 6.941406 11.554688 7.238281 11.851562 7.601562 11.851562 L 11.398438 11.851562 C 11.761719 11.851562 12.058594 11.554688 12.058594 11.1875 L 12.058594 9.679688 C 12.148438 9.507812 12.191406 9.320312 12.191406 9.117188 L 12.191406 8.550781 C 12.191406 8.222656 11.921875 7.953125 11.59375 7.953125 Z M 8.605469 7.910156 L 8.605469 7.773438 C 8.605469 7.628906 8.726562 7.507812 8.871094 7.507812 L 10.128906 7.507812 C 10.273438 7.507812 10.394531 7.628906 10.394531 7.773438 L 10.394531 7.910156 C 10.394531 7.925781 10.394531 7.941406 10.398438 7.953125 L 8.601562 7.953125 C 8.605469 7.941406 8.605469 7.925781 8.605469 7.910156 Z M 7.167969 8.550781 C 7.167969 8.421875 7.273438 8.3125 7.40625 8.3125 L 11.59375 8.3125 C 11.726562 8.3125 11.832031 8.421875 11.832031 8.550781 L 11.832031 9.117188 C 11.832031 9.273438 11.796875 9.417969 11.722656 9.546875 L 11.714844 9.5625 C 11.539062 9.820312 11.226562 9.980469 10.832031 9.980469 L 10.054688 9.980469 L 10.054688 9.9375 C 10.054688 9.800781 9.941406 9.6875 9.800781 9.6875 L 9.199219 9.6875 C 9.058594 9.6875 8.945312 9.800781 8.945312 9.9375 L 8.945312 9.980469 L 8.167969 9.980469 C 7.773438 9.980469 7.460938 9.820312 7.285156 9.5625 L 7.277344 9.546875 C 7.203125 9.417969 7.167969 9.273438 7.167969 9.117188 Z M 9.753906 9.984375 L 9.753906 10.597656 L 9.242188 10.597656 L 9.242188 9.984375 Z M 11.398438 11.492188 L 7.601562 11.492188 C 7.433594 11.492188 7.300781 11.355469 7.300781 11.1875 L 7.300781 10.003906 C 7.527344 10.175781 7.828125 10.277344 8.167969 10.277344 L 8.945312 10.277344 L 8.945312 10.640625 C 8.945312 10.78125 9.058594 10.894531 9.199219 10.894531 L 9.800781 10.894531 C 9.941406 10.894531 10.054688 10.78125 10.054688 10.640625 L 10.054688 10.277344 L 10.832031 10.277344 C 11.171875 10.277344 11.472656 10.175781 11.699219 10.003906 L 11.699219 11.1875 C 11.699219 11.355469 11.5625 11.492188 11.398438 11.492188 Z M 11.398438 11.492188 "/>
</g>
</g>
</svg>
