<svg xmlns="http://www.w3.org/2000/svg" xmlns:xlink="http://www.w3.org/1999/xlink" width="500" zoomAndPan="magnify" viewBox="0 0 375 374.999991" height="500" preserveAspectRatio="xMidYMid meet" version="1.2"><defs><clipPath id="a9bac7d227"><path d="M 0 0 L 37.5 0 L 37.5 37.5 L 0 37.5 Z M 0 0 "/></clipPath><clipPath id="b0d1eb17d3"><path d="M 18.75 0 C 8.394531 0 0 8.394531 0 18.75 C 0 29.105469 8.394531 37.5 18.75 37.5 C 29.105469 37.5 37.5 29.105469 37.5 18.75 C 37.5 8.394531 29.105469 0 18.75 0 Z M 18.75 0 "/></clipPath><clipPath id="4e28e23637"><path d="M 5.589844 7.265625 L 31.921875 7.265625 L 31.921875 30.234375 L 5.589844 30.234375 Z M 5.589844 7.265625 "/></clipPath></defs><g id="238fa41f53"><g clip-rule="nonzero" clip-path="url(#a9bac7d227)"><g clip-rule="nonzero" clip-path="url(#b0d1eb17d3)"><path style=" stroke:none;fill-rule:nonzero;fill:#3c6aaa;fill-opacity:1;" d="M 0 0 L 37.5 0 L 37.5 37.5 L 0 37.5 Z M 0 0 "/></g></g><g clip-rule="nonzero" clip-path="url(#4e28e23637)"><path style=" stroke:none;fill-rule:nonzero;fill:#f2d372;fill-opacity:1;" d="M 28.976562 11.199219 L 26.28125 11.199219 C 25.992188 10.714844 25.46875 10.382812 24.871094 10.363281 L 24.871094 10.320312 C 24.871094 8.636719 23.5 7.265625 21.816406 7.265625 L 15.683594 7.265625 C 14 7.265625 12.628906 8.636719 12.628906 10.320312 L 12.628906 10.363281 C 12.03125 10.382812 11.507812 10.714844 11.21875 11.199219 L 8.523438 11.199219 C 6.914062 11.199219 5.601562 12.511719 5.601562 14.121094 L 5.601562 16.871094 C 5.601562 17.863281 5.820312 18.789062 6.25 19.625 L 6.25 27 C 6.25 28.78125 7.699219 30.234375 9.484375 30.234375 L 28.015625 30.234375 C 29.796875 30.234375 31.25 28.78125 31.25 27 L 31.25 19.625 C 31.679688 18.789062 31.898438 17.863281 31.898438 16.871094 L 31.898438 14.121094 C 31.898438 12.511719 30.585938 11.199219 28.976562 11.199219 Z M 14.382812 10.988281 L 14.382812 10.320312 C 14.382812 9.605469 14.964844 9.019531 15.683594 9.019531 L 21.816406 9.019531 C 22.535156 9.019531 23.117188 9.605469 23.117188 10.320312 L 23.117188 10.988281 C 23.117188 11.0625 23.125 11.132812 23.140625 11.199219 L 14.359375 11.199219 C 14.375 11.132812 14.382812 11.0625 14.382812 10.988281 Z M 7.355469 14.121094 C 7.355469 13.476562 7.878906 12.953125 8.523438 12.953125 L 28.976562 12.953125 C 29.621094 12.953125 30.144531 13.476562 30.144531 14.121094 L 30.144531 16.871094 C 30.144531 17.640625 29.964844 18.347656 29.609375 18.972656 L 29.566406 19.046875 C 28.714844 20.3125 27.175781 21.089844 25.253906 21.089844 L 21.460938 21.089844 L 21.460938 20.894531 C 21.460938 20.214844 20.90625 19.660156 20.226562 19.660156 L 17.273438 19.660156 C 16.59375 19.660156 16.039062 20.214844 16.039062 20.894531 L 16.039062 21.089844 L 12.246094 21.089844 C 10.324219 21.089844 8.785156 20.3125 7.933594 19.046875 L 7.890625 18.972656 C 7.535156 18.347656 7.355469 17.640625 7.355469 16.871094 Z M 20 21.121094 L 20 24.101562 L 17.5 24.101562 L 17.5 21.121094 Z M 28.015625 28.480469 L 9.484375 28.480469 C 8.667969 28.480469 8.003906 27.816406 8.003906 27 L 8.003906 21.214844 C 9.117188 22.058594 10.582031 22.550781 12.246094 22.550781 L 16.039062 22.550781 L 16.039062 24.328125 C 16.039062 25.007812 16.59375 25.5625 17.273438 25.5625 L 20.226562 25.5625 C 20.90625 25.5625 21.460938 25.007812 21.460938 24.328125 L 21.460938 22.550781 L 25.253906 22.550781 C 26.917969 22.550781 28.382812 22.058594 29.496094 21.214844 L 29.496094 27 C 29.496094 27.816406 28.832031 28.480469 28.015625 28.480469 Z M 28.015625 28.480469 "/></g></g></svg>