<?xml version="1.0" encoding="UTF-8"?>
<svg xmlns="http://www.w3.org/2000/svg" xmlns:xlink="http://www.w3.org/1999/xlink" width="19px" height="25px" viewBox="0 0 19 19" version="1.1">
<defs>
<clipPath id="clip1">
  <path d="M 5.507812 6.015625 L 13.476562 6.015625 L 13.476562 12.972656 L 5.507812 12.972656 Z M 5.507812 6.015625 "/>
</clipPath>
</defs>
<g id="surface1">
<g clip-path="url(#clip1)" clip-rule="nonzero">
<path style=" stroke:none;fill-rule:nonzero;fill:rgb(23.529412%,41.568628%,66.666669%);fill-opacity:1;" d="M 12.589844 7.207031 L 11.773438 7.207031 C 11.6875 7.0625 11.527344 6.960938 11.347656 6.953125 L 11.347656 6.941406 C 11.347656 6.433594 10.933594 6.015625 10.421875 6.015625 L 8.566406 6.015625 C 8.054688 6.015625 7.640625 6.433594 7.640625 6.941406 L 7.640625 6.953125 C 7.457031 6.960938 7.300781 7.0625 7.210938 7.207031 L 6.398438 7.207031 C 5.910156 7.207031 5.511719 7.605469 5.511719 8.09375 L 5.511719 8.925781 C 5.511719 9.226562 5.578125 9.507812 5.707031 9.757812 L 5.707031 11.992188 C 5.707031 12.53125 6.148438 12.972656 6.6875 12.972656 L 12.300781 12.972656 C 12.839844 12.972656 13.277344 12.53125 13.277344 11.992188 L 13.277344 9.757812 C 13.410156 9.507812 13.476562 9.226562 13.476562 8.925781 L 13.476562 8.09375 C 13.476562 7.605469 13.078125 7.207031 12.589844 7.207031 Z M 8.171875 7.144531 L 8.171875 6.941406 C 8.171875 6.726562 8.347656 6.546875 8.566406 6.546875 L 10.421875 6.546875 C 10.640625 6.546875 10.816406 6.726562 10.816406 6.941406 L 10.816406 7.144531 C 10.816406 7.167969 10.820312 7.1875 10.824219 7.207031 L 8.164062 7.207031 C 8.167969 7.1875 8.171875 7.167969 8.171875 7.144531 Z M 6.042969 8.09375 C 6.042969 7.898438 6.203125 7.738281 6.398438 7.738281 L 12.589844 7.738281 C 12.785156 7.738281 12.945312 7.898438 12.945312 8.09375 L 12.945312 8.925781 C 12.945312 9.160156 12.890625 9.371094 12.78125 9.5625 L 12.769531 9.585938 C 12.511719 9.96875 12.042969 10.203125 11.460938 10.203125 L 10.3125 10.203125 L 10.3125 10.144531 C 10.3125 9.9375 10.144531 9.769531 9.941406 9.769531 L 9.046875 9.769531 C 8.839844 9.769531 8.671875 9.9375 8.671875 10.144531 L 8.671875 10.203125 L 7.523438 10.203125 C 6.941406 10.203125 6.476562 9.96875 6.21875 9.585938 L 6.203125 9.5625 C 6.097656 9.371094 6.042969 9.160156 6.042969 8.925781 Z M 9.871094 10.210938 L 9.871094 11.113281 L 9.113281 11.113281 L 9.113281 10.210938 Z M 12.300781 12.441406 L 6.6875 12.441406 C 6.441406 12.441406 6.238281 12.238281 6.238281 11.992188 L 6.238281 10.242188 C 6.578125 10.496094 7.019531 10.644531 7.523438 10.644531 L 8.671875 10.644531 L 8.671875 11.183594 C 8.671875 11.390625 8.839844 11.558594 9.046875 11.558594 L 9.941406 11.558594 C 10.144531 11.558594 10.3125 11.390625 10.3125 11.183594 L 10.3125 10.644531 L 11.464844 10.644531 C 11.96875 10.644531 12.410156 10.496094 12.746094 10.242188 L 12.746094 11.992188 C 12.746094 12.238281 12.546875 12.441406 12.300781 12.441406 Z M 12.300781 12.441406 "/>
</g>
</g>
</svg>
