<svg xmlns="http://www.w3.org/2000/svg" xmlns:xlink="http://www.w3.org/1999/xlink" width="500" zoomAndPan="magnify" viewBox="0 0 375 374.999991" height="500" preserveAspectRatio="xMidYMid meet" version="1.2"><defs><clipPath id="6e3589b0ed"><path d="M 108.71875 118.761719 L 266 118.761719 L 266 256.011719 L 108.71875 256.011719 Z M 108.71875 118.761719 "/></clipPath></defs><g id="1e0f32c1ce"><g clip-rule="nonzero" clip-path="url(#6e3589b0ed)"><path style=" stroke:none;fill-rule:nonzero;fill:#3c6aaa;fill-opacity:1;" d="M 248.488281 142.273438 L 232.382812 142.273438 C 230.648438 139.375 227.53125 137.390625 223.949219 137.261719 L 223.949219 137.019531 C 223.949219 126.953125 215.761719 118.761719 205.695312 118.761719 L 169.046875 118.761719 C 158.980469 118.761719 150.789062 126.953125 150.789062 137.019531 L 150.789062 137.261719 C 147.207031 137.390625 144.09375 139.371094 142.359375 142.269531 L 126.253906 142.269531 C 116.625 142.273438 108.792969 150.105469 108.792969 159.734375 L 108.792969 176.160156 C 108.792969 182.09375 110.097656 187.621094 112.671875 192.621094 L 112.671875 236.695312 C 112.671875 247.351562 121.339844 256.019531 131.992188 256.019531 L 242.746094 256.019531 C 253.402344 256.019531 262.070312 247.351562 262.070312 236.695312 L 262.070312 192.621094 C 264.644531 187.625 265.949219 182.09375 265.949219 176.160156 L 265.949219 159.734375 C 265.949219 150.105469 258.117188 142.273438 248.488281 142.273438 Z M 161.269531 141.003906 L 161.269531 137.019531 C 161.269531 132.730469 164.757812 129.242188 169.046875 129.242188 L 205.695312 129.242188 C 209.984375 129.242188 213.472656 132.730469 213.472656 137.019531 L 213.472656 141.003906 C 213.472656 141.4375 213.523438 141.859375 213.601562 142.273438 L 161.140625 142.273438 C 161.21875 141.859375 161.269531 141.4375 161.269531 141.003906 Z M 119.269531 159.734375 C 119.269531 155.882812 122.402344 152.75 126.253906 152.75 L 248.488281 152.75 C 252.339844 152.75 255.472656 155.882812 255.472656 159.734375 L 255.472656 176.160156 C 255.472656 180.757812 254.398438 184.980469 252.277344 188.710938 L 252.015625 189.167969 C 246.933594 196.726562 237.722656 201.375 226.238281 201.375 L 203.566406 201.375 L 203.566406 200.199219 C 203.566406 196.132812 200.257812 192.824219 196.191406 192.824219 L 178.550781 192.824219 C 174.480469 192.824219 171.171875 196.132812 171.171875 200.199219 L 171.171875 201.375 L 148.5 201.375 C 137.019531 201.375 127.808594 196.726562 122.722656 189.167969 L 122.460938 188.710938 C 120.34375 184.980469 119.269531 180.757812 119.269531 176.160156 Z M 194.835938 201.554688 L 194.835938 219.378906 L 179.902344 219.378906 L 179.902344 201.554688 Z M 242.746094 245.539062 L 131.992188 245.539062 C 127.117188 245.539062 123.148438 241.574219 123.148438 236.695312 L 123.148438 202.121094 C 129.808594 207.171875 138.546875 210.105469 148.5 210.105469 L 171.171875 210.105469 L 171.171875 220.730469 C 171.171875 224.800781 174.484375 228.109375 178.550781 228.109375 L 196.191406 228.109375 C 200.257812 228.109375 203.570312 224.800781 203.570312 220.730469 L 203.570312 210.105469 L 226.242188 210.105469 C 236.195312 210.105469 244.933594 207.171875 251.59375 202.121094 L 251.59375 236.695312 C 251.59375 241.574219 247.625 245.539062 242.746094 245.539062 Z M 242.746094 245.539062 "/></g></g></svg>