<svg xmlns="http://www.w3.org/2000/svg" xmlns:xlink="http://www.w3.org/1999/xlink" width="500" zoomAndPan="magnify" viewBox="0 0 375 374.999991" height="500" preserveAspectRatio="xMidYMid meet" version="1.2"><defs><clipPath id="86389316d0"><path d="M 108.335938 118.429688 L 266.585938 118.429688 L 266.585938 256.429688 L 108.335938 256.429688 Z M 108.335938 118.429688 "/></clipPath></defs><g id="24ec7980d1"><rect x="0" width="375" y="0" height="374.999991" style="fill:#ffffff;fill-opacity:1;stroke:none;"/><rect x="0" width="375" y="0" height="374.999991" style="fill:#ffffff;fill-opacity:1;stroke:none;"/><g clip-rule="nonzero" clip-path="url(#86389316d0)"><path style=" stroke:none;fill-rule:nonzero;fill:#f2d372;fill-opacity:1;" d="M 248.867188 142.066406 L 232.671875 142.066406 C 230.929688 139.152344 227.796875 137.15625 224.195312 137.027344 L 224.195312 136.785156 C 224.195312 126.664062 215.960938 118.429688 205.839844 118.429688 L 168.988281 118.429688 C 158.867188 118.429688 150.636719 126.664062 150.636719 136.785156 L 150.636719 137.027344 C 147.035156 137.15625 143.902344 139.152344 142.15625 142.066406 L 125.964844 142.066406 C 116.285156 142.066406 108.40625 149.941406 108.40625 159.621094 L 108.40625 176.140625 C 108.40625 182.105469 109.71875 187.664062 112.308594 192.691406 L 112.308594 237.003906 C 112.308594 247.71875 121.023438 256.433594 131.734375 256.433594 L 243.09375 256.433594 C 253.808594 256.433594 262.523438 247.71875 262.523438 237.003906 L 262.523438 192.691406 C 265.113281 187.664062 266.421875 182.105469 266.421875 176.140625 L 266.421875 159.621094 C 266.421875 149.941406 258.546875 142.066406 248.867188 142.066406 Z M 161.167969 140.792969 L 161.167969 136.785156 C 161.167969 132.472656 164.675781 128.964844 168.988281 128.964844 L 205.839844 128.964844 C 210.152344 128.964844 213.660156 132.472656 213.660156 136.785156 L 213.660156 140.792969 C 213.660156 141.226562 213.710938 141.652344 213.789062 142.066406 L 161.039062 142.066406 C 161.121094 141.652344 161.167969 141.226562 161.167969 140.792969 Z M 118.941406 159.621094 C 118.941406 155.75 122.09375 152.601562 125.964844 152.601562 L 248.863281 152.601562 C 252.738281 152.601562 255.886719 155.75 255.886719 159.621094 L 255.886719 176.140625 C 255.886719 180.761719 254.808594 185.007812 252.675781 188.757812 L 252.414062 189.21875 C 247.300781 196.816406 238.039062 201.492188 226.496094 201.492188 L 203.699219 201.492188 L 203.699219 200.3125 C 203.699219 196.222656 200.371094 192.894531 196.28125 192.894531 L 178.546875 192.894531 C 174.457031 192.894531 171.128906 196.222656 171.128906 200.3125 L 171.128906 201.492188 L 148.332031 201.492188 C 136.789062 201.492188 127.527344 196.816406 122.414062 189.21875 L 122.152344 188.757812 C 120.023438 185.007812 118.941406 180.761719 118.941406 176.140625 Z M 194.921875 201.671875 L 194.921875 219.59375 L 179.90625 219.59375 L 179.90625 201.671875 Z M 243.09375 245.898438 L 131.734375 245.898438 C 126.832031 245.898438 122.839844 241.910156 122.839844 237.003906 L 122.839844 202.242188 C 129.539062 207.320312 138.324219 210.269531 148.332031 210.269531 L 171.128906 210.269531 L 171.128906 220.953125 C 171.128906 225.042969 174.457031 228.371094 178.546875 228.371094 L 196.285156 228.371094 C 200.375 228.371094 203.703125 225.042969 203.703125 220.953125 L 203.703125 210.269531 L 226.496094 210.269531 C 236.507812 210.269531 245.292969 207.320312 251.988281 202.242188 L 251.988281 237.003906 C 251.988281 241.910156 248 245.898438 243.09375 245.898438 Z M 243.09375 245.898438 "/></g></g></svg>