<svg xmlns="http://www.w3.org/2000/svg" xmlns:xlink="http://www.w3.org/1999/xlink" width="500" zoomAndPan="magnify" viewBox="0 0 375 374.999991" height="500" preserveAspectRatio="xMidYMid meet" version="1.2"><defs><clipPath id="2360acb1d6"><path d="M 111.726562 111.726562 L 263.273438 111.726562 L 263.273438 263.273438 L 111.726562 263.273438 Z M 111.726562 111.726562 "/></clipPath><clipPath id="615f232b9c"><path d="M 187.5 111.726562 C 145.652344 111.726562 111.726562 145.652344 111.726562 187.5 C 111.726562 229.347656 145.652344 263.273438 187.5 263.273438 C 229.347656 263.273438 263.273438 229.347656 263.273438 187.5 C 263.273438 145.652344 229.347656 111.726562 187.5 111.726562 Z M 187.5 111.726562 "/></clipPath><clipPath id="7d0213f3c3"><path d="M 134.3125 141.09375 L 240.722656 141.09375 L 240.722656 233.910156 L 134.3125 233.910156 Z M 134.3125 141.09375 "/></clipPath></defs><g id="f6d7ea9ef0"><g clip-rule="nonzero" clip-path="url(#2360acb1d6)"><g clip-rule="nonzero" clip-path="url(#615f232b9c)"><path style=" stroke:none;fill-rule:nonzero;fill:#3c6aaa;fill-opacity:1;" d="M 111.726562 111.726562 L 263.273438 111.726562 L 263.273438 263.273438 L 111.726562 263.273438 Z M 111.726562 111.726562 "/></g></g><g clip-rule="nonzero" clip-path="url(#7d0213f3c3)"><path style=" stroke:none;fill-rule:nonzero;fill:#f2d372;fill-opacity:1;" d="M 228.828125 156.992188 L 217.9375 156.992188 C 216.761719 155.03125 214.65625 153.691406 212.234375 153.605469 L 212.234375 153.4375 C 212.234375 146.632812 206.699219 141.09375 199.890625 141.09375 L 175.105469 141.09375 C 168.300781 141.09375 162.761719 146.632812 162.761719 153.4375 L 162.761719 153.605469 C 160.339844 153.691406 158.234375 155.03125 157.0625 156.992188 L 146.171875 156.992188 C 139.660156 156.992188 134.363281 162.289062 134.363281 168.796875 L 134.363281 179.90625 C 134.363281 183.917969 135.246094 187.65625 136.988281 191.039062 L 136.988281 220.839844 C 136.988281 228.046875 142.847656 233.90625 150.054688 233.90625 L 224.945312 233.90625 C 232.148438 233.90625 238.011719 228.046875 238.011719 220.839844 L 238.011719 191.039062 C 239.753906 187.65625 240.632812 183.917969 240.632812 179.90625 L 240.632812 168.796875 C 240.632812 162.289062 235.335938 156.992188 228.828125 156.992188 Z M 169.847656 156.136719 L 169.847656 153.4375 C 169.847656 150.539062 172.207031 148.179688 175.105469 148.179688 L 199.890625 148.179688 C 202.789062 148.179688 205.148438 150.539062 205.148438 153.4375 L 205.148438 156.136719 C 205.148438 156.429688 205.183594 156.714844 205.238281 156.992188 L 169.761719 156.992188 C 169.816406 156.714844 169.847656 156.429688 169.847656 156.136719 Z M 141.449219 168.796875 C 141.449219 166.195312 143.566406 164.074219 146.171875 164.074219 L 228.824219 164.074219 C 231.429688 164.074219 233.550781 166.195312 233.550781 168.796875 L 233.550781 179.90625 C 233.550781 183.015625 232.824219 185.871094 231.390625 188.390625 L 231.210938 188.703125 C 227.773438 193.8125 221.546875 196.957031 213.78125 196.957031 L 198.449219 196.957031 L 198.449219 196.164062 C 198.449219 193.414062 196.214844 191.175781 193.460938 191.175781 L 181.535156 191.175781 C 178.785156 191.175781 176.546875 193.414062 176.546875 196.164062 L 176.546875 196.957031 L 161.214844 196.957031 C 153.449219 196.957031 147.222656 193.8125 143.785156 188.703125 L 143.609375 188.390625 C 142.175781 185.871094 141.449219 183.015625 141.449219 179.90625 Z M 192.546875 197.078125 L 192.546875 209.128906 L 182.449219 209.128906 L 182.449219 197.078125 Z M 224.945312 226.820312 L 150.054688 226.820312 C 146.753906 226.820312 144.070312 224.140625 144.070312 220.839844 L 144.070312 197.460938 C 148.574219 200.875 154.484375 202.863281 161.214844 202.863281 L 176.546875 202.863281 L 176.546875 210.046875 C 176.546875 212.796875 178.785156 215.035156 181.535156 215.035156 L 193.464844 215.035156 C 196.214844 215.035156 198.453125 212.796875 198.453125 210.046875 L 198.453125 202.863281 L 213.78125 202.863281 C 220.515625 202.863281 226.421875 200.875 230.925781 197.460938 L 230.925781 220.839844 C 230.925781 224.140625 228.242188 226.820312 224.945312 226.820312 Z M 224.945312 226.820312 "/></g></g></svg>