<svg xmlns="http://www.w3.org/2000/svg" xmlns:xlink="http://www.w3.org/1999/xlink" width="500" zoomAndPan="magnify" viewBox="0 0 375 374.999991" height="500" preserveAspectRatio="xMidYMid meet" version="1.2"><defs><clipPath id="0c1a2bafea"><path d="M 0 0 L 37.5 0 L 37.5 33 L 0 33 Z M 0 0 "/></clipPath></defs><g id="3dfd7bc742"><g clip-rule="nonzero" clip-path="url(#0c1a2bafea)"><path style=" stroke:none;fill-rule:nonzero;fill:#f2d372;fill-opacity:1;" d="M 33.320312 5.605469 L 29.480469 5.605469 C 29.066406 4.914062 28.324219 4.441406 27.46875 4.410156 L 27.46875 4.351562 C 27.46875 1.953125 25.519531 0 23.117188 0 L 14.382812 0 C 11.980469 0 10.03125 1.953125 10.03125 4.351562 L 10.03125 4.410156 C 9.175781 4.441406 8.433594 4.914062 8.019531 5.605469 L 4.179688 5.605469 C 1.886719 5.605469 0.0195312 7.472656 0.0195312 9.765625 L 0.0195312 13.683594 C 0.0195312 15.097656 0.328125 16.414062 0.941406 17.605469 L 0.941406 28.113281 C 0.941406 30.652344 3.007812 32.71875 5.550781 32.71875 L 31.953125 32.71875 C 34.492188 32.71875 36.558594 30.652344 36.558594 28.113281 L 36.558594 17.605469 C 37.171875 16.414062 37.480469 15.097656 37.480469 13.683594 L 37.480469 9.765625 C 37.480469 7.472656 35.613281 5.605469 33.320312 5.605469 Z M 12.527344 5.300781 L 12.527344 4.351562 C 12.527344 3.328125 13.359375 2.496094 14.382812 2.496094 L 23.117188 2.496094 C 24.140625 2.496094 24.972656 3.328125 24.972656 4.351562 L 24.972656 5.300781 C 24.972656 5.40625 24.984375 5.507812 25.003906 5.605469 L 12.496094 5.605469 C 12.515625 5.507812 12.527344 5.40625 12.527344 5.300781 Z M 2.515625 9.765625 C 2.515625 8.847656 3.261719 8.101562 4.179688 8.101562 L 33.320312 8.101562 C 34.238281 8.101562 34.984375 8.847656 34.984375 9.765625 L 34.984375 13.683594 C 34.984375 14.777344 34.726562 15.785156 34.222656 16.675781 L 34.160156 16.785156 C 32.949219 18.585938 30.753906 19.695312 28.015625 19.695312 L 22.609375 19.695312 L 22.609375 19.414062 C 22.609375 18.445312 21.820312 17.65625 20.851562 17.65625 L 16.648438 17.65625 C 15.675781 17.65625 14.886719 18.445312 14.886719 19.414062 L 14.886719 19.695312 L 9.484375 19.695312 C 6.746094 19.695312 4.550781 18.585938 3.339844 16.785156 L 3.277344 16.675781 C 2.773438 15.785156 2.515625 14.777344 2.515625 13.683594 Z M 20.53125 19.738281 L 20.53125 23.984375 L 16.96875 23.984375 L 16.96875 19.738281 Z M 31.953125 30.222656 L 5.550781 30.222656 C 4.386719 30.222656 3.441406 29.277344 3.441406 28.113281 L 3.441406 19.871094 C 5.027344 21.074219 7.109375 21.773438 9.484375 21.773438 L 14.890625 21.773438 L 14.890625 24.308594 C 14.890625 25.277344 15.675781 26.066406 16.648438 26.066406 L 20.851562 26.066406 C 21.824219 26.066406 22.609375 25.277344 22.609375 24.308594 L 22.609375 21.773438 L 28.015625 21.773438 C 30.390625 21.773438 32.472656 21.074219 34.058594 19.871094 L 34.058594 28.113281 C 34.058594 29.277344 33.113281 30.222656 31.953125 30.222656 Z M 31.953125 30.222656 "/></g></g></svg>