<?xml version="1.0" encoding="UTF-8"?>
<svg xmlns="http://www.w3.org/2000/svg" xmlns:xlink="http://www.w3.org/1999/xlink" width="19px" height="25px" viewBox="0 0 19 19" version="1.1">
<defs>
<clipPath id="clip1">
  <path d="M 5.488281 6 L 13.507812 6 L 13.507812 12.992188 L 5.488281 12.992188 Z M 5.488281 6 "/>
</clipPath>
</defs>
<g id="surface1">
<g clip-path="url(#clip1)" clip-rule="nonzero">
<path style=" stroke:none;fill-rule:nonzero;fill:rgb(94.901961%,82.745099%,44.705883%);fill-opacity:1;" d="M 12.609375 7.199219 L 11.789062 7.199219 C 11.699219 7.050781 11.542969 6.949219 11.359375 6.941406 L 11.359375 6.929688 C 11.359375 6.417969 10.941406 6 10.429688 6 L 8.5625 6 C 8.050781 6 7.632812 6.417969 7.632812 6.929688 L 7.632812 6.941406 C 7.449219 6.949219 7.292969 7.050781 7.203125 7.199219 L 6.382812 7.199219 C 5.890625 7.199219 5.492188 7.597656 5.492188 8.085938 L 5.492188 8.925781 C 5.492188 9.226562 5.558594 9.507812 5.691406 9.761719 L 5.691406 12.007812 C 5.691406 12.550781 6.132812 12.992188 6.675781 12.992188 L 12.316406 12.992188 C 12.859375 12.992188 13.300781 12.550781 13.300781 12.007812 L 13.300781 9.761719 C 13.433594 9.507812 13.5 9.226562 13.5 8.925781 L 13.5 8.085938 C 13.5 7.597656 13.101562 7.199219 12.609375 7.199219 Z M 8.164062 7.132812 L 8.164062 6.929688 C 8.164062 6.710938 8.34375 6.535156 8.5625 6.535156 L 10.429688 6.535156 C 10.648438 6.535156 10.824219 6.710938 10.824219 6.929688 L 10.824219 7.132812 C 10.824219 7.15625 10.828125 7.175781 10.832031 7.199219 L 8.160156 7.199219 C 8.164062 7.175781 8.164062 7.15625 8.164062 7.132812 Z M 6.027344 8.085938 C 6.027344 7.890625 6.1875 7.730469 6.382812 7.730469 L 12.609375 7.730469 C 12.804688 7.730469 12.964844 7.890625 12.964844 8.085938 L 12.964844 8.925781 C 12.964844 9.160156 12.910156 9.375 12.800781 9.5625 L 12.789062 9.585938 C 12.53125 9.972656 12.0625 10.207031 11.476562 10.207031 L 10.320312 10.207031 L 10.320312 10.148438 C 10.320312 9.941406 10.152344 9.773438 9.945312 9.773438 L 9.046875 9.773438 C 8.839844 9.773438 8.671875 9.941406 8.671875 10.148438 L 8.671875 10.207031 L 7.515625 10.207031 C 6.929688 10.207031 6.460938 9.972656 6.203125 9.585938 L 6.1875 9.5625 C 6.082031 9.375 6.027344 9.160156 6.027344 8.925781 Z M 9.875 10.21875 L 9.875 11.125 L 9.117188 11.125 L 9.117188 10.21875 Z M 12.316406 12.457031 L 6.675781 12.457031 C 6.425781 12.457031 6.222656 12.257812 6.222656 12.007812 L 6.222656 10.246094 C 6.5625 10.503906 7.007812 10.652344 7.515625 10.652344 L 8.671875 10.652344 L 8.671875 11.195312 C 8.671875 11.402344 8.839844 11.570312 9.046875 11.570312 L 9.945312 11.570312 C 10.152344 11.570312 10.320312 11.402344 10.320312 11.195312 L 10.320312 10.652344 L 11.476562 10.652344 C 11.984375 10.652344 12.429688 10.503906 12.765625 10.246094 L 12.765625 12.007812 C 12.765625 12.257812 12.566406 12.457031 12.316406 12.457031 Z M 12.316406 12.457031 "/>
</g>
</g>
</svg>
