<svg xmlns="http://www.w3.org/2000/svg" xmlns:xlink="http://www.w3.org/1999/xlink" width="2245" zoomAndPan="magnify" viewBox="0 0 1683.75 1190.250009" height="1587" preserveAspectRatio="xMidYMid meet" version="1.2"><defs><clipPath id="ff0556212c"><path d="M 453.207031 206.34375 L 1230.324219 206.34375 L 1230.324219 983.460938 L 453.207031 983.460938 Z M 453.207031 206.34375 "/></clipPath><clipPath id="dfa2a11153"><path d="M 841.765625 206.34375 C 627.167969 206.34375 453.207031 380.304688 453.207031 594.902344 C 453.207031 809.496094 627.167969 983.460938 841.765625 983.460938 C 1056.359375 983.460938 1230.324219 809.496094 1230.324219 594.902344 C 1230.324219 380.304688 1056.359375 206.34375 841.765625 206.34375 Z M 841.765625 206.34375 "/></clipPath><clipPath id="54da36fe07"><path d="M 569.03125 356.941406 L 1114.6875 356.941406 L 1114.6875 832.890625 L 569.03125 832.890625 Z M 569.03125 356.941406 "/></clipPath></defs><g id="7a5aa87f07"><g clip-rule="nonzero" clip-path="url(#ff0556212c)"><g clip-rule="nonzero" clip-path="url(#dfa2a11153)"><path style=" stroke:none;fill-rule:nonzero;fill:#3c6aaa;fill-opacity:1;" d="M 453.207031 206.34375 L 1230.324219 206.34375 L 1230.324219 983.460938 L 453.207031 983.460938 Z M 453.207031 206.34375 "/></g></g><g clip-rule="nonzero" clip-path="url(#54da36fe07)"><path style=" stroke:none;fill-rule:nonzero;fill:#f2d372;fill-opacity:1;" d="M 1053.679688 438.453125 L 997.835938 438.453125 C 991.820312 428.402344 981.023438 421.527344 968.601562 421.085938 L 968.601562 420.242188 C 968.601562 385.335938 940.207031 356.941406 905.304688 356.941406 L 778.214844 356.941406 C 743.308594 356.941406 714.917969 385.335938 714.917969 420.238281 L 714.917969 421.082031 C 702.496094 421.527344 691.699219 428.402344 685.683594 438.453125 L 629.835938 438.453125 C 596.449219 438.453125 569.289062 465.613281 569.289062 499.003906 L 569.289062 555.96875 C 569.289062 576.535156 573.808594 595.710938 582.738281 613.046875 L 582.738281 765.871094 C 582.738281 802.816406 612.796875 832.871094 649.742188 832.871094 L 1033.78125 832.871094 C 1070.726562 832.871094 1100.78125 802.816406 1100.78125 765.871094 L 1100.78125 613.046875 C 1109.707031 595.710938 1114.230469 576.535156 1114.230469 555.96875 L 1114.230469 499.003906 C 1114.230469 465.613281 1087.066406 438.453125 1053.679688 438.453125 Z M 751.246094 434.0625 L 751.246094 420.238281 C 751.246094 405.367188 763.34375 393.269531 778.214844 393.269531 L 905.304688 393.269531 C 920.175781 393.269531 932.273438 405.367188 932.273438 420.238281 L 932.273438 434.0625 C 932.273438 435.566406 932.441406 437.027344 932.714844 438.453125 L 750.804688 438.453125 C 751.074219 437.027344 751.246094 435.566406 751.246094 434.0625 Z M 605.617188 499.003906 C 605.617188 485.648438 616.484375 474.785156 629.835938 474.785156 L 1053.679688 474.785156 C 1067.035156 474.785156 1077.898438 485.648438 1077.898438 499.003906 L 1077.898438 555.96875 C 1077.898438 571.910156 1074.171875 586.546875 1066.824219 599.476562 L 1065.917969 601.066406 C 1048.289062 627.277344 1016.347656 643.402344 976.539062 643.402344 L 897.921875 643.402344 L 897.921875 639.324219 C 897.921875 625.21875 886.445312 613.746094 872.339844 613.746094 L 811.171875 613.746094 C 797.066406 613.746094 785.59375 625.21875 785.59375 639.324219 L 785.59375 643.402344 L 706.976562 643.402344 C 667.164062 643.402344 635.222656 627.273438 617.59375 601.066406 L 616.691406 599.476562 C 609.34375 586.546875 605.617188 571.910156 605.617188 555.96875 Z M 867.648438 644.019531 L 867.648438 705.820312 L 815.871094 705.820312 L 815.871094 644.019531 Z M 1033.78125 796.539062 L 649.742188 796.539062 C 632.824219 796.539062 619.066406 782.78125 619.066406 765.871094 L 619.066406 645.980469 C 642.160156 663.488281 672.460938 673.671875 706.980469 673.671875 L 785.597656 673.671875 L 785.597656 710.515625 C 785.597656 724.621094 797.070312 736.09375 811.175781 736.09375 L 872.34375 736.09375 C 886.449219 736.09375 897.925781 724.621094 897.925781 710.515625 L 897.925781 673.671875 L 976.542969 673.671875 C 1011.058594 673.671875 1041.359375 663.488281 1064.453125 645.980469 L 1064.453125 765.871094 C 1064.453125 782.78125 1050.691406 796.539062 1033.78125 796.539062 Z M 1033.78125 796.539062 "/></g></g></svg>