<svg width="26" height="24" viewBox="0 0 26 24" fill="none" xmlns="http://www.w3.org/2000/svg">
<path d="M22.8939 8.40911L22.4568 8.17142C22.389 8.13451 22.3556 8.11599 22.3228 8.0968C21.9969 7.90595 21.7222 7.64226 21.5218 7.32679C21.5016 7.29505 21.4826 7.26176 21.4437 7.19597C21.4049 7.13026 21.3852 7.09696 21.3672 7.064C21.1874 6.73579 21.0901 6.37003 21.0843 5.99776C21.0837 5.96034 21.0838 5.9221 21.0851 5.84607L21.0937 5.34994C21.1073 4.55599 21.1142 4.15778 21.0001 3.80041C20.8987 3.48298 20.7291 3.1906 20.5026 2.94248C20.2466 2.66202 19.8923 2.46192 19.1828 2.06225L18.5935 1.73026C17.886 1.3317 17.5321 1.13235 17.1565 1.05635C16.8242 0.989118 16.4813 0.992234 16.1502 1.0649C15.7765 1.14691 15.4271 1.35145 14.7286 1.76031L14.7247 1.76216L14.3024 2.00933C14.2357 2.04842 14.2019 2.06812 14.1684 2.0863C13.8363 2.26681 13.4656 2.36662 13.0858 2.37854C13.0475 2.37974 13.0086 2.37974 12.9307 2.37974C12.8534 2.37974 12.8128 2.37974 12.7746 2.37854C12.394 2.36657 12.0225 2.26622 11.6899 2.08496C11.6563 2.0667 11.6232 2.04684 11.5563 2.00757L11.1313 1.75818C10.4281 1.34545 10.076 1.13877 9.70021 1.05635C9.36777 0.983434 9.02368 0.981416 8.69017 1.04952C8.3136 1.12641 7.95965 1.32724 7.25175 1.72889L7.24861 1.73026L6.66664 2.06047L6.6602 2.06432C5.95867 2.46236 5.60707 2.66186 5.35322 2.94118C5.12795 3.18905 4.95958 3.48097 4.8588 3.79756C4.74488 4.15542 4.75095 4.55448 4.76468 5.35217L4.77321 5.84761C4.7745 5.92263 4.77674 5.95991 4.77618 5.99681C4.77053 6.36984 4.67199 6.73635 4.49165 7.06514C4.47381 7.09766 4.4546 7.13018 4.41622 7.19513C4.37782 7.26012 4.35922 7.29244 4.3393 7.32381C4.13795 7.64097 3.86201 7.90619 3.53406 8.09737C3.50162 8.11628 3.46744 8.13446 3.40026 8.17085L2.96878 8.40462C2.25088 8.79355 1.89201 8.98818 1.63088 9.26517C1.39988 9.5102 1.22537 9.80085 1.11884 10.1174C0.998428 10.4752 0.998529 10.8764 1.00039 11.6788L1.00192 12.3346C1.00377 13.1317 1.00631 13.5299 1.12699 13.8853C1.23376 14.1997 1.407 14.4887 1.63671 14.7322C1.89636 15.0075 2.25166 15.2009 2.96412 15.5884L3.39175 15.821C3.46453 15.8606 3.50116 15.8801 3.53625 15.9008C3.86123 16.0921 4.135 16.3566 4.33464 16.6719C4.35621 16.706 4.37692 16.7413 4.41832 16.8121C4.45921 16.8819 4.48013 16.9168 4.49904 16.9518C4.67407 17.2758 4.76779 17.6357 4.77418 18.0021C4.77487 18.0417 4.77428 18.0817 4.77289 18.1621L4.76468 18.6376C4.75086 19.438 4.74484 19.8387 4.85942 20.1975C4.96079 20.515 5.13023 20.8073 5.35671 21.0555C5.61272 21.3359 5.96763 21.5359 6.67713 21.9356L7.26631 22.2675C7.97381 22.6661 8.32743 22.8652 8.70304 22.9412C9.03533 23.0084 9.37844 23.0058 9.70953 22.9331C10.0838 22.851 10.4344 22.6457 11.1348 22.2357L11.5571 21.9886C11.6239 21.9495 11.6577 21.9298 11.6912 21.9117C12.0233 21.7312 12.3936 21.6308 12.7734 21.6189C12.8117 21.6177 12.8506 21.6177 12.9285 21.6177C13.0065 21.6177 13.0454 21.6177 13.0838 21.6189C13.4643 21.6309 13.837 21.7315 14.1696 21.9128C14.1988 21.9287 14.2282 21.946 14.2796 21.9762L14.7285 22.2397C15.4319 22.6525 15.7832 22.8585 16.159 22.9409C16.4915 23.0139 16.8358 23.0168 17.1694 22.9487C17.5458 22.8719 17.9005 22.6706 18.608 22.2692L19.1987 21.934C19.9007 21.5357 20.2527 21.336 20.5066 21.0566C20.7319 20.8087 20.9005 20.5169 21.0012 20.2003C21.1143 19.8451 21.1075 19.4491 21.094 18.6629L21.0851 18.1502C21.0839 18.0752 21.0837 18.0378 21.0843 18.0009C21.0899 17.6279 21.1868 17.2611 21.3672 16.9323C21.385 16.8999 21.4043 16.8671 21.4426 16.8024C21.481 16.7374 21.5009 16.705 21.5208 16.6736C21.7221 16.3565 21.9984 16.091 22.3263 15.8998C22.3584 15.8811 22.3913 15.8633 22.4569 15.8278L22.4592 15.8267L22.8907 15.593C23.6085 15.204 23.9681 15.0092 24.2292 14.7322C24.4602 14.4872 24.6345 14.1969 24.741 13.8804C24.8608 13.5247 24.8598 13.1258 24.858 12.3328L24.8564 11.6629C24.8546 10.8658 24.8536 10.4677 24.7329 10.1123C24.6261 9.79785 24.4519 9.5089 24.2222 9.26535C23.9628 8.99032 23.607 8.79682 22.8959 8.4101L22.8939 8.40911Z" stroke="#2F60A5" stroke-width="2" stroke-linecap="round" stroke-linejoin="round"/>
<path d="M8.15604 11.999C8.15604 14.5763 10.2932 16.6656 12.9296 16.6656C15.5659 16.6656 17.7031 14.5763 17.7031 11.999C17.7031 9.42165 15.5659 7.33231 12.9296 7.33231C10.2932 7.33231 8.15604 9.42165 8.15604 11.999Z" stroke="#2F60A5" stroke-width="2" stroke-linecap="round" stroke-linejoin="round"/>
</svg>
