<svg width="78" height="76" viewBox="0 0 78 76" fill="none" xmlns="http://www.w3.org/2000/svg">
<g filter="url(#filter0_d_2111_712)">
<ellipse cx="38.6412" cy="38" rx="28.6412" ry="28" fill="#2F60A5"/>
</g>
<path d="M53.1181 32.4516L52.4769 32.0842C52.3774 32.0272 52.3284 31.9985 52.2803 31.9689C51.8022 31.6739 51.3993 31.2663 51.1052 30.7787C51.0756 30.7297 51.0477 30.6782 50.9907 30.5765C50.9338 30.475 50.9049 30.4235 50.8784 30.3726C50.6146 29.8653 50.472 29.3 50.4634 28.7246C50.4626 28.6667 50.4628 28.6076 50.4647 28.4901L50.4772 27.7233C50.4972 26.4962 50.5073 25.8807 50.3399 25.3283C50.1912 24.8377 49.9424 24.3858 49.6101 24.0023C49.2346 23.5688 48.7147 23.2596 47.674 22.6418L46.8094 22.1287C45.7716 21.5127 45.2525 21.2046 44.7014 21.0871C44.214 20.9832 43.7109 20.988 43.2252 21.1003C42.677 21.2271 42.1644 21.5432 41.1398 22.1751L41.134 22.178L40.5145 22.56C40.4166 22.6204 40.367 22.6509 40.3179 22.679C39.8307 22.958 39.2869 23.1123 38.7297 23.1307C38.6736 23.1325 38.6165 23.1325 38.5023 23.1325C38.3888 23.1325 38.3292 23.1325 38.2732 23.1307C37.7148 23.1122 37.1698 22.9571 36.6819 22.6769C36.6327 22.6487 36.5841 22.618 36.4859 22.5573L35.8626 22.1718C34.8309 21.5339 34.3143 21.2145 33.7631 21.0871C33.2754 20.9744 32.7706 20.9713 32.2814 21.0765C31.729 21.1954 31.2097 21.5058 30.1713 22.1266L30.1666 22.1287L29.3129 22.6391L29.3034 22.645C28.2743 23.2602 27.7585 23.5686 27.3861 24.0003C27.0557 24.3834 26.8087 24.8346 26.6608 25.3239C26.4937 25.877 26.5026 26.4938 26.5227 27.7268L26.5353 28.4925C26.5371 28.6085 26.5404 28.6661 26.5396 28.7231C26.5313 29.2997 26.3868 29.8662 26.1222 30.3743C26.096 30.4246 26.0679 30.4749 26.0116 30.5752C25.9552 30.6757 25.9279 30.7257 25.8987 30.7741C25.6033 31.2643 25.1985 31.6743 24.7174 31.9698C24.6699 31.999 24.6197 32.0271 24.5212 32.0833L23.8882 32.4446C22.835 33.0458 22.3086 33.3466 21.9255 33.7747C21.5866 34.1534 21.3306 34.6027 21.1743 35.0919C20.9977 35.645 20.9978 36.2651 21.0006 37.5053L21.0028 38.5189C21.0055 39.7508 21.0093 40.3664 21.1863 40.9157C21.3429 41.4016 21.5971 41.8482 21.934 42.2246C22.315 42.6501 22.8362 42.9491 23.8813 43.548L24.5087 43.9075C24.6154 43.9686 24.6692 43.9988 24.7207 44.0308C25.1974 44.3265 25.599 44.7353 25.8919 45.2227C25.9235 45.2753 25.9539 45.33 26.0146 45.4393C26.0746 45.5472 26.1053 45.6012 26.1331 45.6553C26.3898 46.156 26.5273 46.7124 26.5367 47.2786C26.5377 47.3397 26.5368 47.4016 26.5348 47.526L26.5227 48.2608C26.5025 49.498 26.4936 50.1173 26.6617 50.6719C26.8104 51.1625 27.059 51.6144 27.3912 51.9979C27.7668 52.4314 28.2875 52.7405 29.3283 53.3582L30.1926 53.8712C31.2305 54.4873 31.7493 54.795 32.3003 54.9125C32.7877 55.0164 33.2911 55.0124 33.7768 54.9001C34.3258 54.7731 34.8401 54.4559 35.8677 53.8221L36.4871 53.4401C36.5851 53.3797 36.6347 53.3494 36.6838 53.3213C37.171 53.0423 37.7143 52.8872 38.2715 52.8688C38.3276 52.8669 38.3847 52.8669 38.4989 52.8669C38.6134 52.8669 38.6705 52.8669 38.7267 52.8688C39.2851 52.8873 39.8317 53.0429 40.3196 53.323C40.3625 53.3477 40.4056 53.3743 40.4811 53.421L41.1396 53.8282C42.1714 54.4662 42.6869 54.7847 43.2381 54.9121C43.7258 55.0248 44.231 55.0294 44.7203 54.9242C45.2725 54.8054 45.7928 54.4943 46.8307 53.8739L47.6973 53.3558C48.7271 52.7402 49.2434 52.4315 49.616 51.9997C49.9464 51.6166 50.1937 51.1656 50.3416 50.6762C50.5075 50.1271 50.4975 49.5151 50.4776 48.3L50.4647 47.5075C50.4628 47.3915 50.4626 47.3338 50.4634 47.2768C50.4717 46.7002 50.6139 46.1334 50.8784 45.6252C50.9045 45.575 50.9329 45.5244 50.9891 45.4243C51.0454 45.3239 51.0746 45.2738 51.1038 45.2253C51.3991 44.7351 51.8044 44.3248 52.2855 44.0293C52.3325 44.0004 52.3809 43.9728 52.4771 43.9179L52.4804 43.9163L53.1133 43.555C54.1665 42.9539 54.694 42.6527 55.077 42.2246C55.4159 41.8459 55.6716 41.3973 55.8278 40.9081C56.0035 40.3583 56.0021 39.7417 55.9994 38.516L55.9971 37.4806C55.9944 36.2487 55.9929 35.6333 55.8159 35.084C55.6593 34.598 55.4037 34.1514 55.0667 33.775C54.6862 33.3499 54.1642 33.0508 53.1211 32.4531L53.1181 32.4516Z" stroke="#FFDB6F" stroke-width="2" stroke-linecap="round" stroke-linejoin="round"/>
<path d="M31.4978 38.0001C31.4978 41.9837 34.6331 45.213 38.5005 45.213C42.368 45.213 45.5033 41.9837 45.5033 38.0001C45.5033 34.0166 42.368 30.7873 38.5005 30.7873C34.6331 30.7873 31.4978 34.0166 31.4978 38.0001Z" stroke="#FFDB6F" stroke-width="2" stroke-linecap="round" stroke-linejoin="round"/>
<defs>
<filter id="filter0_d_2111_712" x="0" y="0" width="77.2825" height="76" filterUnits="userSpaceOnUse" color-interpolation-filters="sRGB">
<feFlood flood-opacity="0" result="BackgroundImageFix"/>
<feColorMatrix in="SourceAlpha" type="matrix" values="0 0 0 0 0 0 0 0 0 0 0 0 0 0 0 0 0 0 127 0" result="hardAlpha"/>
<feOffset/>
<feGaussianBlur stdDeviation="5"/>
<feComposite in2="hardAlpha" operator="out"/>
<feColorMatrix type="matrix" values="0 0 0 0 0 0 0 0 0 0 0 0 0 0 0 0 0 0 0.3 0"/>
<feBlend mode="normal" in2="BackgroundImageFix" result="effect1_dropShadow_2111_712"/>
<feBlend mode="normal" in="SourceGraphic" in2="effect1_dropShadow_2111_712" result="shape"/>
</filter>
</defs>
</svg>
